<?xml version="1.0" encoding="utf-8"?>
<!-- Generator: Adobe Illustrator 27.5.0, SVG Export Plug-In . SVG Version: 6.00 Build 0)  -->
<svg version="1.1" xmlns="http://www.w3.org/2000/svg" xmlns:xlink="http://www.w3.org/1999/xlink" x="0px" y="0px"
	 viewBox="0 0 750 500" style="enable-background:new 0 0 750 500;" xml:space="preserve">
<g id="BACKGROUND">
	<rect style="opacity:0.67;fill:#EFF2F7;" width="750" height="500"/>
</g>
<g id="OBJECTS">
	<g>
		<defs>
			<path id="XMLID_5_" d="M645.491,412.467H119.335c0,0-127.46-136.638-72.397-272.255c55.063-135.618,293.159-22.943,313.042,65.26
				c19.884,88.203,153.972,39.768,204.956-1.02C615.92,163.665,821.386,231.474,645.491,412.467z"/>
		</defs>
		
			<linearGradient id="XMLID_00000177451188201441667180000009855170712923575730_" gradientUnits="userSpaceOnUse" x1="33.135" y1="244.8615" x2="715.3715" y2="244.8615">
			<stop  offset="0" style="stop-color:#DEDDE9"/>
			<stop  offset="0.994" style="stop-color:#B0BFE8"/>
		</linearGradient>
		
			<use xlink:href="#XMLID_5_"  style="overflow:visible;opacity:0.4;fill:url(#XMLID_00000177451188201441667180000009855170712923575730_);"/>
		<clipPath id="XMLID_00000085951793978595052040000013581983960065777302_">
			<use xlink:href="#XMLID_5_"  style="overflow:visible;opacity:0.4;"/>
		</clipPath>
	</g>
	<linearGradient id="SVGID_1_" gradientUnits="userSpaceOnUse" x1="547.2585" y1="207.3895" x2="615.7041" y2="207.3895">
		<stop  offset="0" style="stop-color:#3D365F"/>
		<stop  offset="0.9985" style="stop-color:#58467F"/>
	</linearGradient>
	<path style="fill:url(#SVGID_1_);" d="M609.402,190.795c-3.052-0.186-9.344-0.875-11.553-3.426c0,0-0.992,4.248-4.028,6.422
		c0,0-1.903,1.99-3.964,3.155c-0.001,0.002-4.054,8.46-9.827,16.301c0.817,2.711,3.793,2.649,6.018,2.176
		c2.28,5.404,4.405,11.987,4.405,11.987c-2.281-7.982-1.793-12.531-1.553-13.881c0.727-2.911,2.747-10.45,3.742-8.636
		c0.401,0.732,1.425,2.685,2.062,3.163c1.232,0.924,2.602,1.104,3.944,0.796c1.06-7.676,2.067-13.171,7.796-14.42
		c-5.952,5.177-2.46,5.254,1.83,2.854C609.181,194.874,609.511,192.713,609.402,190.795z"/>
	
		<linearGradient id="SVGID_00000176747654161088579740000011112909862716414885_" gradientUnits="userSpaceOnUse" x1="579.8147" y1="207.3895" x2="609.4324" y2="207.3895">
		<stop  offset="0.0091" style="stop-color:#A46A6D"/>
		<stop  offset="1" style="stop-color:#B28E8E"/>
	</linearGradient>
	<path style="fill:url(#SVGID_00000176747654161088579740000011112909862716414885_);" d="M597.849,187.369
		c0,0-0.992,4.248-4.028,6.422c0,0-1.903,1.99-3.964,3.155c-0.001,0.002-4.054,8.46-9.827,16.301
		c0.817,2.711,3.793,2.649,6.018,2.176c2.28,5.404,4.405,11.987,4.405,11.987c-2.281-7.982-1.793-12.531-1.553-13.881
		c0.727-2.911,2.747-10.45,3.742-8.636c0.401,0.732,1.425,2.685,2.062,3.163c1.232,0.924,2.602,1.104,3.944,0.796
		c1.917-0.439,3.778-1.88,5.1-3.638c0.005-0.006,0.008-0.012,0.013-0.018c0.471,0.09,1.381,0.201,1.726-0.19
		c0.354-0.401,1.115-3.183,1.356-4.578c0.588-1.093,1.055-2.137,1.432-3.143c0.905-2.412,1.235-4.573,1.127-6.491
		C606.351,190.609,600.059,189.92,597.849,187.369z"/>
	
		<linearGradient id="SVGID_00000059995094814895956800000003446376480023987858_" gradientUnits="userSpaceOnUse" x1="547.2586" y1="211.3877" x2="615.7043" y2="211.3877">
		<stop  offset="0" style="stop-color:#3D365F"/>
		<stop  offset="0.9985" style="stop-color:#58467F"/>
	</linearGradient>
	<path style="fill:url(#SVGID_00000059995094814895956800000003446376480023987858_);" d="M580.031,209.574l5.918-12.326
		c-0.221-0.201-0.418-0.466-0.584-0.806c-6.695,2.221-17.478,12.12-17.478,12.12s-24.288,6.578-10.12,16.192
		c7.431,5.043,15.895-2.856,22.264-11.507C579.762,212.352,579.726,211.158,580.031,209.574z"/>
	
		<linearGradient id="SVGID_00000060740258593837806720000002694592974110510498_" gradientUnits="userSpaceOnUse" x1="547.2588" y1="205.0963" x2="615.7042" y2="205.0963">
		<stop  offset="0" style="stop-color:#3D365F"/>
		<stop  offset="0.9985" style="stop-color:#58467F"/>
	</linearGradient>
	<path style="fill:url(#SVGID_00000060740258593837806720000002694592974110510498_);" d="M585.949,197.248l-5.918,12.326
		c-0.305,1.584-0.27,2.778,0,3.673c5.773-7.841,9.826-16.3,9.827-16.301C588.438,197.749,586.946,198.153,585.949,197.248z"/>
	
		<linearGradient id="SVGID_00000145758026178882102650000001924646341271074731_" gradientUnits="userSpaceOnUse" x1="579.8154" y1="205.0963" x2="609.4329" y2="205.0963">
		<stop  offset="0.0091" style="stop-color:#A46A6D"/>
		<stop  offset="1" style="stop-color:#B28E8E"/>
	</linearGradient>
	<path style="fill:url(#SVGID_00000145758026178882102650000001924646341271074731_);" d="M585.949,197.248l-5.918,12.326
		c-0.305,1.584-0.27,2.778,0,3.673c5.773-7.841,9.826-16.3,9.827-16.301C588.438,197.749,586.946,198.153,585.949,197.248z"/>
	
		<linearGradient id="SVGID_00000004507896224495663750000015504343639390530434_" gradientUnits="userSpaceOnUse" x1="547.2585" y1="186.2285" x2="615.7041" y2="186.2285">
		<stop  offset="0" style="stop-color:#3D365F"/>
		<stop  offset="0.9985" style="stop-color:#58467F"/>
	</linearGradient>
	<path style="fill:url(#SVGID_00000004507896224495663750000015504343639390530434_);" d="M594.24,179.19
		c5.396-0.704,14.676,2.994,15.162,11.605c1.038,0.063,1.702,0.068,1.702,0.068c0.218-1.646-4.463-9.092-4.463-9.092l-5.831-5.087
		l-6.996-0.669l-7.034,4.478c0,0-3.374,10.888-1.556,15.637c0.043,0.113,0.092,0.213,0.14,0.312
		c0.214-0.071,0.422-0.132,0.627-0.186C586.141,192.67,587.167,180.113,594.24,179.19z"/>
	
		<linearGradient id="SVGID_00000140012690800636426750000010959891927547301771_" gradientUnits="userSpaceOnUse" x1="547.2589" y1="188.0255" x2="615.7041" y2="188.0255">
		<stop  offset="0" style="stop-color:#3D365F"/>
		<stop  offset="0.9985" style="stop-color:#58467F"/>
	</linearGradient>
	<path style="fill:url(#SVGID_00000140012690800636426750000010959891927547301771_);" d="M594.24,179.19
		c-7.073,0.923-8.099,13.481-8.248,17.066c1.699-0.453,3.083-0.339,3.866,0.69h0c2.06-1.165,3.964-3.155,3.964-3.155
		c3.036-2.174,4.028-6.422,4.028-6.422c2.209,2.552,8.502,3.241,11.553,3.426C608.916,182.184,599.636,178.485,594.24,179.19z"/>
	
		<linearGradient id="SVGID_00000176026197276388228450000006321339215210684828_" gradientUnits="userSpaceOnUse" x1="579.8148" y1="188.0255" x2="609.4323" y2="188.0255">
		<stop  offset="0.0091" style="stop-color:#A46A6D"/>
		<stop  offset="1" style="stop-color:#B28E8E"/>
	</linearGradient>
	<path style="fill:url(#SVGID_00000176026197276388228450000006321339215210684828_);" d="M594.24,179.19
		c-7.073,0.923-8.099,13.481-8.248,17.066c1.699-0.453,3.083-0.339,3.866,0.69h0c2.06-1.165,3.964-3.155,3.964-3.155
		c3.036-2.174,4.028-6.422,4.028-6.422c2.209,2.552,8.502,3.241,11.553,3.426C608.916,182.184,599.636,178.485,594.24,179.19z"/>
	
		<linearGradient id="SVGID_00000011750830930914228230000009686430555230048948_" gradientUnits="userSpaceOnUse" x1="547.2571" y1="196.7521" x2="615.7056" y2="196.7521">
		<stop  offset="0" style="stop-color:#3D365F"/>
		<stop  offset="0.9985" style="stop-color:#58467F"/>
	</linearGradient>
	<path style="fill:url(#SVGID_00000011750830930914228230000009686430555230048948_);" d="M585.949,197.248l0.017-0.035
		c0,0,0.001-0.357,0.026-0.958c-0.205,0.055-0.413,0.116-0.627,0.186C585.531,196.783,585.728,197.048,585.949,197.248z"/>
	
		<linearGradient id="SVGID_00000160153661168777909020000005607998768292792984_" gradientUnits="userSpaceOnUse" x1="553.3287" y1="196.7521" x2="589.8583" y2="196.7521">
		<stop  offset="0" style="stop-color:#3D365F"/>
		<stop  offset="0.9985" style="stop-color:#58467F"/>
	</linearGradient>
	<path style="fill:url(#SVGID_00000160153661168777909020000005607998768292792984_);" d="M585.949,197.248l0.017-0.035
		c0,0,0.001-0.357,0.026-0.958c-0.205,0.055-0.413,0.116-0.627,0.186C585.531,196.783,585.728,197.048,585.949,197.248z"/>
	
		<linearGradient id="SVGID_00000049206948557741266160000001972144319883290001_" gradientUnits="userSpaceOnUse" x1="584.687" y1="196.7521" x2="611.113" y2="196.7521">
		<stop  offset="0" style="stop-color:#3D365F"/>
		<stop  offset="0.9985" style="stop-color:#58467F"/>
	</linearGradient>
	<path style="fill:url(#SVGID_00000049206948557741266160000001972144319883290001_);" d="M585.949,197.248l0.017-0.035
		c0,0,0.001-0.357,0.026-0.958c-0.205,0.055-0.413,0.116-0.627,0.186C585.531,196.783,585.728,197.048,585.949,197.248z"/>
	
		<linearGradient id="SVGID_00000013187206851947223760000008767479094739223429_" gradientUnits="userSpaceOnUse" x1="547.2585" y1="196.8835" x2="615.7043" y2="196.8835">
		<stop  offset="0" style="stop-color:#3D365F"/>
		<stop  offset="0.9985" style="stop-color:#58467F"/>
	</linearGradient>
	<path style="fill:url(#SVGID_00000013187206851947223760000008767479094739223429_);" d="M585.992,196.256
		c-0.025,0.6-0.026,0.958-0.026,0.958l-0.017,0.035c0.997,0.904,2.489,0.5,3.909-0.303h0
		C589.075,195.917,587.691,195.803,585.992,196.256z"/>
	
		<linearGradient id="SVGID_00000066495848067367189450000000656671339233441422_" gradientUnits="userSpaceOnUse" x1="579.8147" y1="196.8835" x2="609.4323" y2="196.8835">
		<stop  offset="0.0091" style="stop-color:#A46A6D"/>
		<stop  offset="1" style="stop-color:#B28E8E"/>
	</linearGradient>
	<path style="fill:url(#SVGID_00000066495848067367189450000000656671339233441422_);" d="M585.992,196.256
		c-0.025,0.6-0.026,0.958-0.026,0.958l-0.017,0.035c0.997,0.904,2.489,0.5,3.909-0.303h0
		C589.075,195.917,587.691,195.803,585.992,196.256z"/>
	
		<linearGradient id="SVGID_00000001664189984978520280000009792164035052862387_" gradientUnits="userSpaceOnUse" x1="553.3299" y1="196.8835" x2="589.858" y2="196.8835">
		<stop  offset="0" style="stop-color:#3D365F"/>
		<stop  offset="0.9985" style="stop-color:#58467F"/>
	</linearGradient>
	<path style="fill:url(#SVGID_00000001664189984978520280000009792164035052862387_);" d="M585.992,196.256
		c-0.025,0.6-0.026,0.958-0.026,0.958l-0.017,0.035c0.997,0.904,2.489,0.5,3.909-0.303h0
		C589.075,195.917,587.691,195.803,585.992,196.256z"/>
	
		<linearGradient id="SVGID_00000000196501948207975560000015093009318367325874_" gradientUnits="userSpaceOnUse" x1="525.1602" y1="210.6077" x2="987.8547" y2="210.6077">
		<stop  offset="0" style="stop-color:#3D365F"/>
		<stop  offset="0.9985" style="stop-color:#58467F"/>
	</linearGradient>
	<path style="fill:url(#SVGID_00000000196501948207975560000015093009318367325874_);" d="M609.737,180.764
		c0,0,0.143-5.455-8.589-8.093c-8.732-2.638-24.332,4.763-21.311,14.051c3.102,9.537-11.956,5.482-13.376,12.977
		c-1.714,9.047-18.876,4.906-19.2,20.964s24.101,41.638,40.209,20.268c8.665-11.497,9.958-23.236,11.179-32.079
		c-1.342,0.308-2.712,0.128-3.944-0.796c-0.637-0.478-1.66-2.431-2.062-3.163c-0.995-1.814-3.015,5.726-3.742,8.636
		c-0.24,1.35-0.728,5.898,1.553,13.881c0,0-2.125-6.583-4.405-11.987c-2.225,0.472-5.201,0.534-6.018-2.176
		c5.773-7.841,9.826-16.3,9.827-16.301c2.06-1.165,3.964-3.155,3.964-3.155c3.036-2.174,4.028-6.422,4.028-6.422
		c2.209,2.552,8.502,3.241,11.553,3.426c0.108,1.918-0.221,4.079-1.127,6.491c3.27-1.83,7.003-5.099,7.375-8.654
		C616.362,181.824,609.737,180.764,609.737,180.764z M585.365,196.442c0.214-0.071,0.422-0.132,0.627-0.186
		c-0.025,0.6-0.026,0.958-0.026,0.958l-0.017,0.035C585.728,197.048,585.531,196.783,585.365,196.442z"/>
	<polygon style="fill:#FFFFFF;" points="207.957,111.576 207.957,125.859 207.957,337.619 207.957,356.249 520.941,356.249 
		520.941,337.619 520.941,125.859 520.941,111.576 	"/>
	<g style="opacity:0.7;">
		
			<linearGradient id="SVGID_00000003821133716539694270000002776928608871549112_" gradientUnits="userSpaceOnUse" x1="272.3528" y1="74.3971" x2="456.5452" y2="393.4278">
			<stop  offset="0.0068" style="stop-color:#669FC0"/>
			<stop  offset="0.9951" style="stop-color:#3E5B95"/>
		</linearGradient>
		
			<rect x="207.957" y="111.576" style="fill:url(#SVGID_00000003821133716539694270000002776928608871549112_);" width="312.983" height="244.673"/>
		<rect x="207.957" y="125.859" style="opacity:0.7;fill:#FFFFFF;" width="312.983" height="211.76"/>
	</g>
	<g>
		<rect x="407.499" y="148.901" style="opacity:0.4;fill:#FFFFFF;" width="93.15" height="102.003"/>
		<rect x="428.284" y="153.956" style="opacity:0.4;fill:#FFFFFF;" width="51.579" height="28.048"/>
		<g>
			<path style="opacity:0.68;fill:#FFFFFF;" d="M491.153,195.394h-55.287c-0.354,0-0.643-0.289-0.643-0.643v-0.643
				c0-0.354,0.289-0.643,0.643-0.643h55.287c0.354,0,0.643,0.289,0.643,0.643v0.643
				C491.796,195.105,491.506,195.394,491.153,195.394z"/>
			<path style="opacity:0.68;fill:#FFFFFF;" d="M463.604,200.542h-27.93c-0.248,0-0.451-0.203-0.451-0.451v-0.96
				c0-0.248,0.203-0.451,0.451-0.451h27.93c0.248,0,0.451,0.203,0.451,0.451v0.96C464.055,200.339,463.852,200.542,463.604,200.542z
				"/>
			
				<linearGradient id="SVGID_00000017490774563800615560000001304872092900937139_" gradientUnits="userSpaceOnUse" x1="421.6653" y1="190.8032" x2="428.2697" y2="202.2425">
				<stop  offset="0.011" style="stop-color:#D1A290"/>
				<stop  offset="1" style="stop-color:#D46A91"/>
			</linearGradient>
			<path style="opacity:0.41;fill:url(#SVGID_00000017490774563800615560000001304872092900937139_);" d="M428.615,201.825h-6.62
				c-0.778,0-1.409-0.631-1.409-1.409v-6.62c0-0.778,0.631-1.409,1.409-1.409h6.62c0.778,0,1.409,0.631,1.409,1.409v6.62
				C430.023,201.195,429.392,201.825,428.615,201.825z"/>
		</g>
		<g>
			<path style="opacity:0.68;fill:#FFFFFF;" d="M491.153,214.841h-55.287c-0.354,0-0.643-0.289-0.643-0.643v-0.643
				c0-0.354,0.289-0.643,0.643-0.643h55.287c0.354,0,0.643,0.289,0.643,0.643v0.643
				C491.796,214.552,491.506,214.841,491.153,214.841z"/>
			<path style="opacity:0.68;fill:#FFFFFF;" d="M463.604,219.989h-27.93c-0.248,0-0.451-0.203-0.451-0.451v-0.96
				c0-0.248,0.203-0.451,0.451-0.451h27.93c0.248,0,0.451,0.203,0.451,0.451v0.96C464.055,219.786,463.852,219.989,463.604,219.989z
				"/>
			
				<linearGradient id="SVGID_00000124157000018185176510000002723033549133093517_" gradientUnits="userSpaceOnUse" x1="419.5132" y1="216.8393" x2="430.0232" y2="216.8393">
				<stop  offset="0" style="stop-color:#DA8D2F"/>
				<stop  offset="1" style="stop-color:#E8BF4A"/>
			</linearGradient>
			<path style="opacity:0.41;fill:url(#SVGID_00000124157000018185176510000002723033549133093517_);" d="M428.615,221.558h-6.62
				c-0.778,0-1.409-0.631-1.409-1.409v-6.62c0-0.778,0.631-1.409,1.409-1.409h6.62c0.778,0,1.409,0.631,1.409,1.409v6.62
				C430.023,220.927,429.392,221.558,428.615,221.558z"/>
		</g>
		<g>
			<path style="opacity:0.68;fill:#FFFFFF;" d="M491.153,234.288h-55.287c-0.354,0-0.643-0.289-0.643-0.643v-0.643
				c0-0.354,0.289-0.643,0.643-0.643h55.287c0.354,0,0.643,0.289,0.643,0.643v0.643
				C491.796,233.999,491.506,234.288,491.153,234.288z"/>
			<path style="opacity:0.68;fill:#FFFFFF;" d="M463.604,239.436h-27.93c-0.248,0-0.451-0.203-0.451-0.451v-0.961
				c0-0.248,0.203-0.451,0.451-0.451h27.93c0.248,0,0.451,0.203,0.451,0.451v0.961C464.055,239.233,463.852,239.436,463.604,239.436
				z"/>
			
				<linearGradient id="SVGID_00000075844880027382920400000017320182482373579439_" gradientUnits="userSpaceOnUse" x1="421.6653" y1="230.2688" x2="428.2697" y2="241.7081">
				<stop  offset="0.0032" style="stop-color:#70B0AD"/>
				<stop  offset="1" style="stop-color:#6890C6"/>
			</linearGradient>
			<path style="opacity:0.41;fill:url(#SVGID_00000075844880027382920400000017320182482373579439_);" d="M428.615,241.291h-6.62
				c-0.778,0-1.409-0.631-1.409-1.409v-6.62c0-0.778,0.631-1.409,1.409-1.409h6.62c0.778,0,1.409,0.631,1.409,1.409v6.62
				C430.023,240.66,429.392,241.291,428.615,241.291z"/>
		</g>
	</g>
	<g>
		<defs>
			<path id="XMLID_6_" d="M375.293,327.373H254.067c-1.581,0-2.862-1.281-2.862-2.862v-77.47c0-1.581,1.281-2.862,2.862-2.862
				h121.225c1.581,0,2.862,1.281,2.862,2.862v77.47C378.154,326.092,376.873,327.373,375.293,327.373z"/>
		</defs>
		<use xlink:href="#XMLID_6_"  style="overflow:visible;opacity:0.39;fill:#FFFFFF;"/>
		<clipPath id="XMLID_00000078046063744818802760000017773050652663220889_">
			<use xlink:href="#XMLID_6_"  style="overflow:visible;opacity:0.39;"/>
		</clipPath>
		
			<rect x="246.496" y="242.413" style="opacity:0.4;clip-path:url(#XMLID_00000078046063744818802760000017773050652663220889_);fill:#FFFFFF;" width="144.804" height="8.045"/>
	</g>
	<g>
		<path style="opacity:0.68;fill:#FFFFFF;" d="M269.193,169.963c-1.153,0-2.088,0.935-2.088,2.088v4.209
			c0,1.153,0.935,2.088,2.088,2.088h64.771v-8.385H269.193z"/>
		
			<linearGradient id="SVGID_00000021079074217109879500000001109723929832823438_" gradientUnits="userSpaceOnUse" x1="334.9268" y1="168.9999" x2="345.2378" y2="179.3109">
			<stop  offset="0.011" style="stop-color:#D1A290"/>
			<stop  offset="1" style="stop-color:#D46A91"/>
		</linearGradient>
		<path style="fill:url(#SVGID_00000021079074217109879500000001109723929832823438_);" d="M345.336,169.963h-11.372v8.385h11.372
			c1.153,0,2.088-0.935,2.088-2.088v-4.209C347.424,170.898,346.489,169.963,345.336,169.963z"/>
		<path style="fill:#FFFFFF;" d="M343.465,176.268l-1.108-0.803c0.651-1.08,0.378-2.502-0.662-3.255
			c-1.096-0.795-2.635-0.55-3.43,0.547c-0.795,1.096-0.55,2.635,0.547,3.43c1.068,0.774,2.555,0.561,3.366-0.464l1.102,0.799
			L343.465,176.268z M338.997,175.932c-0.956-0.693-1.17-2.036-0.477-2.992c0.693-0.956,2.036-1.17,2.992-0.477
			c0.956,0.694,1.17,2.036,0.477,2.992C341.295,176.412,339.953,176.626,338.997,175.932z"/>
	</g>
	<g>
		<g>
			<defs>
				<path id="XMLID_7_" d="M372.038,231.667H251.438c-1.572,0-2.847-1.275-2.847-2.847v-77.071c0-1.573,1.275-2.847,2.847-2.847
					h120.601c1.573,0,2.847,1.275,2.847,2.847v77.071C374.886,230.392,373.611,231.667,372.038,231.667z"/>
			</defs>
			<use xlink:href="#XMLID_7_"  style="overflow:visible;opacity:0.39;fill:#FFFFFF;"/>
			<clipPath id="XMLID_00000033364369068219919820000005374007543202816653_">
				<use xlink:href="#XMLID_7_"  style="overflow:visible;opacity:0.39;"/>
			</clipPath>
			
				<rect x="243.906" y="147.145" style="opacity:0.4;clip-path:url(#XMLID_00000033364369068219919820000005374007543202816653_);fill:#FFFFFF;" width="144.059" height="8.003"/>
		</g>
		
			<linearGradient id="SVGID_00000061467378709011758570000002756436707262636208_" gradientUnits="userSpaceOnUse" x1="252.7297" y1="173.8414" x2="326.9546" y2="173.8414">
			<stop  offset="0.0032" style="stop-color:#70B0AD"/>
			<stop  offset="1" style="stop-color:#6890C6"/>
		</linearGradient>
		<path style="opacity:0.32;fill:url(#SVGID_00000061467378709011758570000002756436707262636208_);" d="M326.336,174.599h-65.414
			c-0.34,0-0.618-0.278-0.618-0.619v-0.278c0-0.34,0.278-0.618,0.618-0.618h65.414c0.34,0,0.618,0.278,0.618,0.618v0.278
			C326.954,174.32,326.676,174.599,326.336,174.599z"/>
		
			<linearGradient id="SVGID_00000071533056132680047840000000500937419830057384_" gradientUnits="userSpaceOnUse" x1="255.2369" y1="178.4096" x2="304.8908" y2="178.4096">
			<stop  offset="0.0032" style="stop-color:#70B0AD"/>
			<stop  offset="1" style="stop-color:#6890C6"/>
		</linearGradient>
		<path style="opacity:0.32;fill:url(#SVGID_00000071533056132680047840000000500937419830057384_);" d="M304.384,179.17h-43.573
			c-0.279,0-0.507-0.228-0.507-0.507v-0.508c0-0.279,0.228-0.507,0.507-0.507h43.573c0.279,0,0.507,0.228,0.507,0.507v0.508
			C304.891,178.942,304.663,179.17,304.384,179.17z"/>
		
			<linearGradient id="SVGID_00000128479464830219387760000003813720322101189507_" gradientUnits="userSpaceOnUse" x1="252.7297" y1="182.9711" x2="326.9546" y2="182.9711">
			<stop  offset="0.0032" style="stop-color:#70B0AD"/>
			<stop  offset="1" style="stop-color:#6890C6"/>
		</linearGradient>
		<path style="opacity:0.32;fill:url(#SVGID_00000128479464830219387760000003813720322101189507_);" d="M326.336,183.729h-65.414
			c-0.34,0-0.618-0.278-0.618-0.618v-0.278c0-0.34,0.278-0.618,0.618-0.618h65.414c0.34,0,0.618,0.278,0.618,0.618v0.278
			C326.954,183.45,326.676,183.729,326.336,183.729z"/>
		
			<linearGradient id="SVGID_00000091733452880937063770000011087466980381897361_" gradientUnits="userSpaceOnUse" x1="255.2369" y1="187.5394" x2="304.8908" y2="187.5394">
			<stop  offset="0.0032" style="stop-color:#70B0AD"/>
			<stop  offset="1" style="stop-color:#6890C6"/>
		</linearGradient>
		<path style="opacity:0.32;fill:url(#SVGID_00000091733452880937063770000011087466980381897361_);" d="M304.384,188.3h-43.573
			c-0.279,0-0.507-0.228-0.507-0.507v-0.508c0-0.279,0.228-0.507,0.507-0.507h43.573c0.279,0,0.507,0.228,0.507,0.507v0.508
			C304.891,188.072,304.663,188.3,304.384,188.3z"/>
		
			<linearGradient id="SVGID_00000070091801267380291340000014342647179215632552_" gradientUnits="userSpaceOnUse" x1="252.7297" y1="199.709" x2="326.9546" y2="199.709">
			<stop  offset="0.0032" style="stop-color:#70B0AD"/>
			<stop  offset="1" style="stop-color:#6890C6"/>
		</linearGradient>
		<path style="opacity:0.32;fill:url(#SVGID_00000070091801267380291340000014342647179215632552_);" d="M326.336,200.467h-65.414
			c-0.34,0-0.618-0.278-0.618-0.618v-0.278c0-0.34,0.278-0.618,0.618-0.618h65.414c0.34,0,0.618,0.278,0.618,0.618v0.278
			C326.954,200.188,326.676,200.467,326.336,200.467z"/>
		
			<linearGradient id="SVGID_00000146473863160709033300000013808208325876116630_" gradientUnits="userSpaceOnUse" x1="255.2369" y1="191.3435" x2="304.8908" y2="191.3435">
			<stop  offset="0.0032" style="stop-color:#70B0AD"/>
			<stop  offset="1" style="stop-color:#6890C6"/>
		</linearGradient>
		<path style="opacity:0.32;fill:url(#SVGID_00000146473863160709033300000013808208325876116630_);" d="M304.384,192.104h-43.573
			c-0.279,0-0.507-0.228-0.507-0.507v-0.508c0-0.279,0.228-0.507,0.507-0.507h43.573c0.279,0,0.507,0.228,0.507,0.507v0.508
			C304.891,191.876,304.663,192.104,304.384,192.104z"/>
		
			<linearGradient id="SVGID_00000096768724982226000670000001772771854609999519_" gradientUnits="userSpaceOnUse" x1="252.7297" y1="208.8389" x2="326.9546" y2="208.8389">
			<stop  offset="0.0032" style="stop-color:#70B0AD"/>
			<stop  offset="1" style="stop-color:#6890C6"/>
		</linearGradient>
		<path style="opacity:0.32;fill:url(#SVGID_00000096768724982226000670000001772771854609999519_);" d="M326.336,209.596h-65.414
			c-0.34,0-0.618-0.278-0.618-0.618V208.7c0-0.34,0.278-0.618,0.618-0.618h65.414c0.34,0,0.618,0.278,0.618,0.618v0.278
			C326.954,209.318,326.676,209.596,326.336,209.596z"/>
		
			<linearGradient id="SVGID_00000150072109336852262910000005255392967082966701_" gradientUnits="userSpaceOnUse" x1="252.7297" y1="204.274" x2="326.9546" y2="204.274">
			<stop  offset="0.0032" style="stop-color:#70B0AD"/>
			<stop  offset="1" style="stop-color:#6890C6"/>
		</linearGradient>
		<path style="opacity:0.32;fill:url(#SVGID_00000150072109336852262910000005255392967082966701_);" d="M326.336,205.031h-65.414
			c-0.34,0-0.618-0.278-0.618-0.618v-0.278c0-0.34,0.278-0.618,0.618-0.618h65.414c0.34,0,0.618,0.278,0.618,0.618v0.278
			C326.954,204.753,326.676,205.031,326.336,205.031z"/>
		
			<linearGradient id="SVGID_00000090989038032687490870000013917864576000612743_" gradientUnits="userSpaceOnUse" x1="255.2369" y1="213.407" x2="304.8908" y2="213.407">
			<stop  offset="0.0032" style="stop-color:#70B0AD"/>
			<stop  offset="1" style="stop-color:#6890C6"/>
		</linearGradient>
		<path style="opacity:0.32;fill:url(#SVGID_00000090989038032687490870000013917864576000612743_);" d="M304.384,214.168h-43.573
			c-0.279,0-0.507-0.228-0.507-0.507v-0.508c0-0.279,0.228-0.507,0.507-0.507h43.573c0.279,0,0.507,0.228,0.507,0.507v0.508
			C304.891,213.94,304.663,214.168,304.384,214.168z"/>
		
			<linearGradient id="SVGID_00000008150282732901081650000009396500954000256399_" gradientUnits="userSpaceOnUse" x1="255.2369" y1="218.7328" x2="304.8908" y2="218.7328">
			<stop  offset="0.0032" style="stop-color:#70B0AD"/>
			<stop  offset="1" style="stop-color:#6890C6"/>
		</linearGradient>
		<path style="opacity:0.32;fill:url(#SVGID_00000008150282732901081650000009396500954000256399_);" d="M304.384,219.494h-43.573
			c-0.279,0-0.507-0.228-0.507-0.507v-0.508c0-0.279,0.228-0.507,0.507-0.507h43.573c0.279,0,0.507,0.228,0.507,0.507v0.508
			C304.891,219.266,304.663,219.494,304.384,219.494z"/>
		<rect x="340.649" y="171.182" style="opacity:0.4;fill:#FFFFFF;" width="24.346" height="21.683"/>
		<rect x="340.649" y="200.473" style="opacity:0.4;fill:#FFFFFF;" width="24.346" height="21.683"/>
		<rect x="260.383" y="161.291" style="opacity:0.4;fill:#FFFFFF;" width="104.612" height="3.804"/>
	</g>
	<g>
		<g>
			<defs>
				<path id="XMLID_48_" d="M595.386,356.925c0,0-14.004-12.01-19.082-24.54c-5.078-12.53-12.834-15.159-13.634-22.635
					c-0.8-7.477-17.671-10.232-18.85-19c-1.179-8.767-14.952-15.237-14.952-15.237s17.052-8.515,24.511,2.614
					c7.46,11.129,5.878,20.006,16.015,21.234s22.55,10.201,24.604,24.32C596.052,337.8,606.61,345.214,595.386,356.925z"/>
			</defs>
			
				<linearGradient id="XMLID_00000166671942775294622760000006136746083921875126_" gradientUnits="userSpaceOnUse" x1="626.1529" y1="581.3362" x2="618.1812" y2="630.3127" gradientTransform="matrix(0.9594 -0.2819 0.2819 0.9594 -201.7306 -85.1359)">
				<stop  offset="0.0032" style="stop-color:#70AEAB"/>
				<stop  offset="1" style="stop-color:#678EC4"/>
			</linearGradient>
			
				<use xlink:href="#XMLID_48_"  style="overflow:visible;fill:url(#XMLID_00000166671942775294622760000006136746083921875126_);"/>
			<clipPath id="XMLID_00000153705741888662676150000005628839426909045435_">
				<use xlink:href="#XMLID_48_"  style="overflow:visible;"/>
			</clipPath>
			
				<linearGradient id="SVGID_00000097480025385093252470000015078406268307433360_" gradientUnits="userSpaceOnUse" x1="614.7304" y1="616.9224" x2="640.1903" y2="616.9224" gradientTransform="matrix(0.9594 -0.2819 0.2819 0.9594 -201.7306 -85.1359)">
				<stop  offset="0.0032" style="stop-color:#70AEAB"/>
				<stop  offset="1" style="stop-color:#678EC4"/>
			</linearGradient>
			
				<path style="clip-path:url(#XMLID_00000153705741888662676150000005628839426909045435_);fill:url(#SVGID_00000097480025385093252470000015078406268307433360_);" d="
				M552.945,302.792c2.571-0.755,13.773,6.47,22.328,16.576c8.556,10.106,2.812,16.701,9.282,19.707
				c6.47,3.007,10.831,17.85,10.831,17.85l-28.946-15.332L552.945,302.792z"/>
		</g>
		<g>
			<defs>
				<path id="XMLID_50_" d="M595.263,357.187c0,0-17.706-2.819-33.829,0.639c-16.123,3.458-31.263-1.222-47.65,13.228
					c0,0,6.973-10.862,7.251-14.574c0.278-3.712,19.398-7.319,19.25-10.316c-0.149-2.997,4.148,4.417,4.148,4.417l-0.868-5.851
					c0,0,15.691-5.17,18.267-2.178c2.575,2.992,3.578,4.561,3.578,4.561l0.417-5.568c0,0,9.419-1.161,15.135,2.254
					C586.679,347.212,591.964,348.914,595.263,357.187z"/>
			</defs>
			
				<linearGradient id="XMLID_00000037671933742257363050000007576913140121733773_" gradientUnits="userSpaceOnUse" x1="807.8554" y1="495.8197" x2="725.4632" y2="495.8197" gradientTransform="matrix(-0.9697 0.2445 0.2445 0.9697 1174.4722 -313.0612)">
				<stop  offset="0.0032" style="stop-color:#70AEAB"/>
				<stop  offset="1" style="stop-color:#678EC4"/>
			</linearGradient>
			
				<use xlink:href="#XMLID_50_"  style="overflow:visible;fill:url(#XMLID_00000037671933742257363050000007576913140121733773_);"/>
			<clipPath id="XMLID_00000042697915915968057070000008315132458536213180_">
				<use xlink:href="#XMLID_50_"  style="overflow:visible;"/>
			</clipPath>
			
				<linearGradient id="SVGID_00000046336491535641968960000012208453120094978455_" gradientUnits="userSpaceOnUse" x1="725.4632" y1="503.5645" x2="802.1026" y2="503.5645" gradientTransform="matrix(-0.9697 0.2445 0.2445 0.9697 1174.4722 -313.0612)">
				<stop  offset="0.0032" style="stop-color:#70AEAB"/>
				<stop  offset="1" style="stop-color:#678EC4"/>
			</linearGradient>
			
				<path style="clip-path:url(#XMLID_00000042697915915968057070000008315132458536213180_);fill:url(#SVGID_00000046336491535641968960000012208453120094978455_);" d="
				M595.695,358.899c-0.432-1.712-6.153-7.553-12.862-7.682c-6.709-0.129-10.565-0.978-10.565-0.978l-5.702,3.866l1.846-4.714
				c0,0-6.426-1.415-15.269,2.029c-8.843,3.444-16.123,3.458-16.123,3.458l0.437,4.139l-5.429-2.273c0,0-10.982,4.59-12.392,13.443
				c-1.41,8.853,65.941-3.273,65.941-3.273L595.695,358.899z"/>
		</g>
		<g>
			<defs>
				<path id="XMLID_49_" d="M598.956,356.529c0,0,26.485-5.453,34.275-13.242c7.79-7.79,31.159,0,31.159,0
					s-12.464-10.127-22.59-10.906l-8.569,5.453l3.116-5.453c0,0-17.137-10.906-24.927-4.674
					C603.63,333.939,595.061,342.507,598.956,356.529z"/>
			</defs>
			
				<linearGradient id="XMLID_00000101797503776756477720000006475954267711403158_" gradientUnits="userSpaceOnUse" x1="664.3894" y1="341.1561" x2="597.985" y2="341.1561">
				<stop  offset="0.0032" style="stop-color:#70AEAB"/>
				<stop  offset="1" style="stop-color:#678EC4"/>
			</linearGradient>
			
				<use xlink:href="#XMLID_49_"  style="overflow:visible;fill:url(#XMLID_00000101797503776756477720000006475954267711403158_);"/>
			<clipPath id="XMLID_00000159464239011800677050000003127171669737028749_">
				<use xlink:href="#XMLID_49_"  style="overflow:visible;"/>
			</clipPath>
			
				<linearGradient id="SVGID_00000140699361532896627470000018236069198138249856_" gradientUnits="userSpaceOnUse" x1="598.177" y1="351.3328" x2="646.0367" y2="351.3328">
				<stop  offset="0.0032" style="stop-color:#70AEAB"/>
				<stop  offset="1" style="stop-color:#678EC4"/>
			</linearGradient>
			
				<path style="clip-path:url(#XMLID_00000159464239011800677050000003127171669737028749_);fill:url(#SVGID_00000140699361532896627470000018236069198138249856_);" d="
				M598.177,356.529c0.779,0,4.674-18.695,13.242-15.579c8.569,3.116,11.685,0,11.685,0l1.558,4.674c0,0,10.127-8.934,19.864-4.467
				c9.737,4.467-30.769,21.604-30.769,21.604L598.177,356.529"/>
		</g>
		<g>
			<defs>
				<path id="XMLID_53_" d="M599.045,356.784c0,0,5.345-20.663,16.787-36.612c11.443-15.95,13.536-34.698,37.099-45.707
					c0,0-15.17,2.442-19.353,0.98c-4.183-1.462-17.213,17.688-20.413,16.1c-3.2-1.588,2.847,6.628,2.847,6.628l-5.972-3.73
					c0,0-13.105,14.664-11.065,18.898c2.041,4.234,3.275,6.073,3.275,6.073l-6.274-2.193c0,0-5.747,9.726-4.74,17.589
					C592.243,342.672,591.587,349.249,599.045,356.784z"/>
			</defs>
			
				<linearGradient id="XMLID_00000080184046867365788420000012029415968203829143_" gradientUnits="userSpaceOnUse" x1="833.0109" y1="-198.2013" x2="734.9218" y2="-198.2013" gradientTransform="matrix(0.6115 -0.7912 0.7912 0.6115 294.7275 1050.389)">
				<stop  offset="0.0032" style="stop-color:#70AEAB"/>
				<stop  offset="1" style="stop-color:#678EC4"/>
			</linearGradient>
			
				<use xlink:href="#XMLID_53_"  style="overflow:visible;fill:url(#XMLID_00000080184046867365788420000012029415968203829143_);"/>
			<clipPath id="XMLID_00000105384813105376958450000018010044689729607609_">
				<use xlink:href="#XMLID_53_"  style="overflow:visible;"/>
			</clipPath>
			
				<linearGradient id="SVGID_00000010300719595973812170000004568343097725353100_" gradientUnits="userSpaceOnUse" x1="734.9217" y1="-188.9805" x2="826.1622" y2="-188.9805" gradientTransform="matrix(0.6115 -0.7912 0.7912 0.6115 294.7275 1050.389)">
				<stop  offset="0.0032" style="stop-color:#70AEAB"/>
				<stop  offset="1" style="stop-color:#678EC4"/>
			</linearGradient>
			
				<path style="clip-path:url(#XMLID_00000105384813105376958450000018010044689729607609_);fill:url(#SVGID_00000010300719595973812170000004568343097725353100_);" d="
				M600.708,358.069c-1.663-1.285-5.316-10.307-2.266-17.69s3.958-11.994,3.958-11.994l6.93-4.384l-6.023-0.227
				c0,0,1.513-7.686,9.477-15.698c7.964-8.012,11.442-15.95,11.442-15.95l4.309,2.445l0.102-7.005c0,0,10.232-9.801,20.563-7.129
				c10.331,2.672-34.935,70.402-34.935,70.402L600.708,358.069z"/>
		</g>
		
			<linearGradient id="SVGID_00000014604440175712189300000015371894249284832180_" gradientUnits="userSpaceOnUse" x1="585.1247" y1="381.8018" x2="615.3571" y2="381.8018">
			<stop  offset="0.011" style="stop-color:#CFA08E"/>
			<stop  offset="1" style="stop-color:#D26A8F"/>
		</linearGradient>
		<path style="fill:url(#SVGID_00000014604440175712189300000015371894249284832180_);" d="M592.427,356.529
			c0,0-9.46,50.307-6.845,51.054c2.154,0.615,21.294,0.217,27.97,0.057c1.178-0.028,2.028-1.135,1.754-2.281l-11.846-49.67
			L592.427,356.529z"/>
		<g>
			
				<linearGradient id="SVGID_00000113353989451973157270000010152474914092681368_" gradientUnits="userSpaceOnUse" x1="522.65" y1="213.4723" x2="553.6984" y2="213.4723" gradientTransform="matrix(0.9305 0.3664 -0.3664 0.9305 191.1239 -38.3318)">
				<stop  offset="0.0032" style="stop-color:#70AEAB"/>
				<stop  offset="1" style="stop-color:#678EC4"/>
			</linearGradient>
			<path style="fill:url(#SVGID_00000113353989451973157270000010152474914092681368_);" d="M597.789,355.473
				c0,0,3.211,10.004,13.362,8.44c10.15-1.564,16.883-0.503,16.883-0.503L611.336,347.3
				C611.336,347.3,602.415,347.76,597.789,355.473z"/>
			
				<linearGradient id="SVGID_00000156563591020552862210000009405947361655203245_" gradientUnits="userSpaceOnUse" x1="522.65" y1="213.4723" x2="553.6984" y2="213.4723" gradientTransform="matrix(0.9305 0.3664 -0.3664 0.9305 191.1239 -38.3318)">
				<stop  offset="0.0032" style="stop-color:#70AEAB"/>
				<stop  offset="1" style="stop-color:#678EC4"/>
			</linearGradient>
			<path style="fill:url(#SVGID_00000156563591020552862210000009405947361655203245_);" d="M597.789,355.473
				c0,0,3.211,10.004,13.362,8.44c10.15-1.564,16.883-0.503,16.883-0.503L611.336,347.3
				C611.336,347.3,602.415,347.76,597.789,355.473z"/>
			
				<linearGradient id="SVGID_00000174581535370413551110000004890577808215121318_" gradientUnits="userSpaceOnUse" x1="577.3162" y1="231.8794" x2="538.0223" y2="201.1793" gradientTransform="matrix(0.9305 0.3664 -0.3664 0.9305 191.1239 -38.3318)">
				<stop  offset="0.0032" style="stop-color:#70AEAB"/>
				<stop  offset="1" style="stop-color:#678EC4"/>
			</linearGradient>
			<path style="fill:url(#SVGID_00000174581535370413551110000004890577808215121318_);" d="M608.898,353.491l2.438-6.191
				c0,0,4.94-0.438,13.069,5.147c8.13,5.585,10.421-2.253,15.799,2.249c5.378,4.501,13.821,17.361,11.53,25.198
				c-2.292,7.837-8.522,23.658-16.462,27.682c0,0,2.73-2.897,0.77-10.026c-1.96-7.128-5.734-19.738-3.671-18.925
				c2.063,0.813,6.982-3.607,6.982-3.607l-10.86-2.687c0,0-4.045-11.922-11.465-13.255
				C609.607,357.743,608.898,353.491,608.898,353.491z"/>
		</g>
	</g>
	<g>
		<g>
			<defs>
				<path id="XMLID_11_" d="M170.22,358.718c0,0-14.004-12.01-19.081-24.54c-5.078-12.53-12.834-15.159-13.634-22.635
					c-0.8-7.477-17.671-10.232-18.85-19c-1.179-8.768-14.952-15.237-14.952-15.237s17.051-8.515,24.511,2.614
					c7.46,11.129,5.878,20.007,16.016,21.235c10.137,1.228,22.55,10.201,24.604,24.32
					C170.886,339.593,181.444,347.007,170.22,358.718z"/>
			</defs>
			
				<linearGradient id="XMLID_00000013179603727204022270000013663511277670422958_" gradientUnits="userSpaceOnUse" x1="217.7089" y1="463.1917" x2="209.7372" y2="512.1683" gradientTransform="matrix(0.9594 -0.2819 0.2819 0.9594 -201.7306 -85.1359)">
				<stop  offset="0.0032" style="stop-color:#70AEAB"/>
				<stop  offset="1" style="stop-color:#678EC4"/>
			</linearGradient>
			
				<use xlink:href="#XMLID_11_"  style="overflow:visible;fill:url(#XMLID_00000013179603727204022270000013663511277670422958_);"/>
			<clipPath id="XMLID_00000019673299823861910330000003198827601944150443_">
				<use xlink:href="#XMLID_11_"  style="overflow:visible;"/>
			</clipPath>
			
				<linearGradient id="SVGID_00000039841647387941153430000007082246916205259697_" gradientUnits="userSpaceOnUse" x1="206.2864" y1="498.778" x2="231.7463" y2="498.778" gradientTransform="matrix(0.9594 -0.2819 0.2819 0.9594 -201.7306 -85.1359)">
				<stop  offset="0.0032" style="stop-color:#70AEAB"/>
				<stop  offset="1" style="stop-color:#678EC4"/>
			</linearGradient>
			
				<path style="clip-path:url(#XMLID_00000019673299823861910330000003198827601944150443_);fill:url(#SVGID_00000039841647387941153430000007082246916205259697_);" d="
				M127.779,304.584c2.571-0.756,13.772,6.47,22.328,16.576c8.556,10.106,2.812,16.701,9.282,19.707
				c6.47,3.007,10.831,17.85,10.831,17.85l-28.946-15.332L127.779,304.584z"/>
		</g>
		<g>
			<defs>
				<path id="XMLID_10_" d="M170.097,358.979c0,0-17.706-2.819-33.829,0.639c-16.123,3.458-31.263-1.222-47.65,13.228
					c0,0,6.973-10.862,7.251-14.574c0.278-3.712,19.398-7.319,19.25-10.316c-0.149-2.997,4.149,4.417,4.149,4.417l-0.868-5.851
					c0,0,15.691-5.17,18.267-2.178c2.575,2.992,3.578,4.561,3.578,4.561l0.417-5.568c0,0,9.419-1.161,15.135,2.254
					C161.512,349.005,166.797,350.707,170.097,358.979z"/>
			</defs>
			
				<linearGradient id="XMLID_00000181803708276901123090000017193929097325049478_" gradientUnits="userSpaceOnUse" x1="1220.5366" y1="393.615" x2="1138.1445" y2="393.615" gradientTransform="matrix(-0.9697 0.2445 0.2445 0.9697 1174.4722 -313.0612)">
				<stop  offset="0.0032" style="stop-color:#70AEAB"/>
				<stop  offset="1" style="stop-color:#678EC4"/>
			</linearGradient>
			
				<use xlink:href="#XMLID_10_"  style="overflow:visible;fill:url(#XMLID_00000181803708276901123090000017193929097325049478_);"/>
			<clipPath id="XMLID_00000031200033220569880250000011345397694632167833_">
				<use xlink:href="#XMLID_10_"  style="overflow:visible;"/>
			</clipPath>
			
				<linearGradient id="SVGID_00000013166182428026572500000001152169943460609929_" gradientUnits="userSpaceOnUse" x1="1138.1444" y1="401.3596" x2="1214.7838" y2="401.3596" gradientTransform="matrix(-0.9697 0.2445 0.2445 0.9697 1174.4722 -313.0612)">
				<stop  offset="0.0032" style="stop-color:#70AEAB"/>
				<stop  offset="1" style="stop-color:#678EC4"/>
			</linearGradient>
			
				<path style="clip-path:url(#XMLID_00000031200033220569880250000011345397694632167833_);fill:url(#SVGID_00000013166182428026572500000001152169943460609929_);" d="
				M170.529,360.691c-0.432-1.712-6.153-7.553-12.862-7.682s-10.565-0.978-10.565-0.978l-5.702,3.865l1.846-4.714
				c0,0-6.426-1.415-15.269,2.029c-8.843,3.444-16.123,3.458-16.123,3.458l0.437,4.139l-5.429-2.273c0,0-10.982,4.59-12.392,13.443
				s65.941-3.273,65.941-3.273L170.529,360.691z"/>
		</g>
		<g>
			<defs>
				<path id="XMLID_9_" d="M173.79,358.321c0,0,26.485-5.453,34.275-13.242c7.79-7.79,31.159,0,31.159,0
					s-12.464-10.127-22.59-10.906l-8.569,5.453l3.116-5.453c0,0-17.137-10.906-24.927-4.674
					C178.464,335.731,169.895,344.3,173.79,358.321z"/>
			</defs>
			
				<linearGradient id="XMLID_00000112618227700715570620000015910621824140543403_" gradientUnits="userSpaceOnUse" x1="239.2233" y1="342.9486" x2="172.8189" y2="342.9486">
				<stop  offset="0.0032" style="stop-color:#70AEAB"/>
				<stop  offset="1" style="stop-color:#678EC4"/>
			</linearGradient>
			<use xlink:href="#XMLID_9_"  style="overflow:visible;fill:url(#XMLID_00000112618227700715570620000015910621824140543403_);"/>
			<clipPath id="XMLID_00000062160820392227116320000007204958132624900259_">
				<use xlink:href="#XMLID_9_"  style="overflow:visible;"/>
			</clipPath>
			
				<linearGradient id="SVGID_00000059310811369466236570000000093502856474860416_" gradientUnits="userSpaceOnUse" x1="173.0109" y1="353.1254" x2="220.8707" y2="353.1254">
				<stop  offset="0.0032" style="stop-color:#70AEAB"/>
				<stop  offset="1" style="stop-color:#678EC4"/>
			</linearGradient>
			
				<path style="clip-path:url(#XMLID_00000062160820392227116320000007204958132624900259_);fill:url(#SVGID_00000059310811369466236570000000093502856474860416_);" d="
				M173.011,358.321c0.779,0,4.674-18.695,13.243-15.579c8.569,3.116,11.684,0,11.684,0l1.558,4.674c0,0,10.127-8.934,19.864-4.467
				c9.737,4.467-30.769,21.604-30.769,21.604L173.011,358.321"/>
		</g>
		<g>
			<defs>
				<path id="XMLID_8_" d="M173.879,358.577c0,0,5.345-20.663,16.787-36.612c11.442-15.95,13.536-34.698,37.099-45.707
					c0,0-15.17,2.442-19.353,0.98c-4.183-1.462-17.213,17.688-20.413,16.1c-3.2-1.588,2.847,6.628,2.847,6.628l-5.972-3.73
					c0,0-13.105,14.664-11.065,18.898c2.041,4.234,3.275,6.073,3.275,6.073l-6.274-2.193c0,0-5.747,9.726-4.74,17.588
					C167.077,344.464,166.421,351.041,173.879,358.577z"/>
			</defs>
			
				<linearGradient id="XMLID_00000127735507357386390100000000157301525072443778_" gradientUnits="userSpaceOnUse" x1="571.5852" y1="-533.5201" x2="473.4961" y2="-533.5201" gradientTransform="matrix(0.6115 -0.7912 0.7912 0.6115 294.7275 1050.389)">
				<stop  offset="0.0032" style="stop-color:#70AEAB"/>
				<stop  offset="1" style="stop-color:#678EC4"/>
			</linearGradient>
			<use xlink:href="#XMLID_8_"  style="overflow:visible;fill:url(#XMLID_00000127735507357386390100000000157301525072443778_);"/>
			<clipPath id="XMLID_00000086684680086222497460000013577588648367885713_">
				<use xlink:href="#XMLID_8_"  style="overflow:visible;"/>
			</clipPath>
			
				<linearGradient id="SVGID_00000090281994965739903440000016669066856142803879_" gradientUnits="userSpaceOnUse" x1="473.496" y1="-524.2993" x2="564.7365" y2="-524.2993" gradientTransform="matrix(0.6115 -0.7912 0.7912 0.6115 294.7275 1050.389)">
				<stop  offset="0.0032" style="stop-color:#70AEAB"/>
				<stop  offset="1" style="stop-color:#678EC4"/>
			</linearGradient>
			
				<path style="clip-path:url(#XMLID_00000086684680086222497460000013577588648367885713_);fill:url(#SVGID_00000090281994965739903440000016669066856142803879_);" d="
				M175.542,359.862c-1.663-1.285-5.316-10.307-2.266-17.69c3.05-7.383,3.958-11.994,3.958-11.994l6.93-4.384l-6.023-0.227
				c0,0,1.513-7.686,9.477-15.698c7.964-8.012,11.442-15.95,11.442-15.95l4.309,2.445l0.102-7.005c0,0,10.232-9.801,20.563-7.129
				c10.331,2.672-34.935,70.402-34.935,70.402L175.542,359.862z"/>
		</g>
		
			<linearGradient id="SVGID_00000022562459713246210550000004446632795591647391_" gradientUnits="userSpaceOnUse" x1="159.9586" y1="383.5944" x2="190.191" y2="383.5944">
			<stop  offset="0.011" style="stop-color:#CFA08E"/>
			<stop  offset="1" style="stop-color:#D26A8F"/>
		</linearGradient>
		<path style="fill:url(#SVGID_00000022562459713246210550000004446632795591647391_);" d="M167.261,358.321
			c0,0-9.46,50.307-6.845,51.054c2.154,0.615,21.294,0.217,27.97,0.057c1.178-0.028,2.028-1.135,1.755-2.281l-11.846-49.67
			L167.261,358.321z"/>
		<g>
			
				<linearGradient id="SVGID_00000011028320966869707030000003151879517319966337_" gradientUnits="userSpaceOnUse" x1="127.7211" y1="370.9087" x2="158.7694" y2="370.9087" gradientTransform="matrix(0.9305 0.3664 -0.3664 0.9305 191.1239 -38.3318)">
				<stop  offset="0.0032" style="stop-color:#70AEAB"/>
				<stop  offset="1" style="stop-color:#678EC4"/>
			</linearGradient>
			<path style="fill:url(#SVGID_00000011028320966869707030000003151879517319966337_);" d="M172.622,357.265
				c0,0,3.211,10.004,13.362,8.44c10.15-1.564,16.883-0.503,16.883-0.503l-16.698-16.11
				C186.169,349.093,177.249,349.553,172.622,357.265z"/>
			
				<linearGradient id="SVGID_00000139254370680814368370000008287349965418514050_" gradientUnits="userSpaceOnUse" x1="127.7211" y1="370.9087" x2="158.7694" y2="370.9087" gradientTransform="matrix(0.9305 0.3664 -0.3664 0.9305 191.1239 -38.3318)">
				<stop  offset="0.0032" style="stop-color:#70AEAB"/>
				<stop  offset="1" style="stop-color:#678EC4"/>
			</linearGradient>
			<path style="fill:url(#SVGID_00000139254370680814368370000008287349965418514050_);" d="M172.622,357.265
				c0,0,3.211,10.004,13.362,8.44c10.15-1.564,16.883-0.503,16.883-0.503l-16.698-16.11
				C186.169,349.093,177.249,349.553,172.622,357.265z"/>
			
				<linearGradient id="SVGID_00000048478828618458026010000014777392150371338673_" gradientUnits="userSpaceOnUse" x1="182.3873" y1="389.3158" x2="143.0933" y2="358.6157" gradientTransform="matrix(0.9305 0.3664 -0.3664 0.9305 191.1239 -38.3318)">
				<stop  offset="0.0032" style="stop-color:#70AEAB"/>
				<stop  offset="1" style="stop-color:#678EC4"/>
			</linearGradient>
			<path style="fill:url(#SVGID_00000048478828618458026010000014777392150371338673_);" d="M183.732,355.284l2.438-6.191
				c0,0,4.94-0.438,13.069,5.147c8.13,5.585,10.421-2.253,15.799,2.249c5.378,4.501,13.821,17.361,11.53,25.198
				c-2.292,7.837-8.522,23.658-16.462,27.682c0,0,2.73-2.898,0.77-10.026c-1.96-7.128-5.734-19.738-3.671-18.925
				c2.064,0.813,6.982-3.607,6.982-3.607l-10.86-2.687c0,0-4.045-11.922-11.465-13.255
				C184.441,359.535,183.732,355.284,183.732,355.284z"/>
		</g>
	</g>
	
		<linearGradient id="SVGID_00000008841193810599601260000002413441938186331547_" gradientUnits="userSpaceOnUse" x1="80.4771" y1="418.8166" x2="668.0293" y2="418.8166">
		<stop  offset="0" style="stop-color:#DEDDE9"/>
		<stop  offset="0.994" style="stop-color:#B0BFE8"/>
	</linearGradient>
	
		<ellipse style="fill:url(#SVGID_00000008841193810599601260000002413441938186331547_);" cx="374.253" cy="418.817" rx="293.776" ry="11.929"/>
	
		<linearGradient id="SVGID_00000070113668211696350610000002787288730449284506_" gradientUnits="userSpaceOnUse" x1="571.6158" y1="234.3527" x2="620.9958" y2="234.3527">
		<stop  offset="0.0091" style="stop-color:#A46A6D"/>
		<stop  offset="1" style="stop-color:#B28E8E"/>
	</linearGradient>
	<path style="fill:url(#SVGID_00000070113668211696350610000002787288730449284506_);" d="M581.228,210.164
		c0,0,5.381-0.706,5.381,16.108s3.026,18.455,6.762,19.389c3.737,0.934,23.66,0.778,26.462-2.024c0,0,1.831,3.25,0.897,4.184
		c-0.934,0.934-30.161,15.588-39.503,9.049C571.886,250.332,565.348,211.098,581.228,210.164z"/>
	
		<linearGradient id="SVGID_00000041281270770450617470000011311678156694320026_" gradientUnits="userSpaceOnUse" x1="571.6158" y1="234.3527" x2="620.9958" y2="234.3527">
		<stop  offset="0.0091" style="stop-color:#A46A6D"/>
		<stop  offset="1" style="stop-color:#B28E8E"/>
	</linearGradient>
	<path style="opacity:0.36;fill:url(#SVGID_00000041281270770450617470000011311678156694320026_);" d="M581.228,210.164
		c0,0,5.381-0.706,5.381,16.108s3.026,18.455,6.762,19.389c3.737,0.934,23.66,0.778,26.462-2.024c0,0,1.831,3.25,0.897,4.184
		c-0.934,0.934-30.161,15.588-39.503,9.049C571.886,250.332,565.348,211.098,581.228,210.164z"/>
	<path style="fill:#E2B19D;" d="M613.002,368.314c0.472,1.387,2.8,0.354,4.684-0.767c0.344-2.519,1.347-9.858,1.347-9.858
		s0.021-0.066,0.059-0.187c-1.495-0.299-3.583-0.638-5.71-0.755c0.011,0.055,0.019,0.119,0.031,0.174c0,0,0.202,6.897-1.229,8.991
		c-0.18,0.263-0.377,0.523-0.583,0.783C612.031,366.732,612.578,367.067,613.002,368.314z"/>
	<path style="fill:#232F4A;" d="M630.216,376.391c-1.787-3.679-12.872-6.339-12.565-8.587c0.01-0.074,0.023-0.171,0.035-0.257
		c-1.885,1.12-4.212,2.154-4.684,0.767c-0.424-1.247-0.971-1.582-1.4-1.619c-1.436,1.806-3.3,3.554-2.586,5.654
		C609.832,374.749,632.003,380.069,630.216,376.391z"/>
	<path style="fill:#E2B19D;" d="M634.823,347.964c0.989,1.081,2.706-0.801,3.982-2.583c-0.696-2.446-2.725-9.569-2.725-9.569
		s-0.007-0.069-0.021-0.195c-1.489,0.327-3.538,0.854-5.532,1.601c0.033,0.047,0.065,0.102,0.098,0.147c0,0,2.955,6.235,2.485,8.728
		c-0.059,0.313-0.135,0.631-0.22,0.951C633.298,346.905,633.934,346.992,634.823,347.964z"/>
	<path style="fill:#232F4A;" d="M653.831,348.448c-3.114-2.652-14.334-0.636-14.956-2.818c-0.021-0.072-0.047-0.165-0.071-0.249
		c-1.276,1.783-2.993,3.664-3.982,2.583c-0.889-0.971-1.525-1.059-1.932-0.92c-0.59,2.231-1.595,4.58-0.098,6.216
		C634.504,355.131,656.945,351.099,653.831,348.448z"/>
	
		<linearGradient id="SVGID_00000101063356078762370110000010890435067884966294_" gradientUnits="userSpaceOnUse" x1="550.5759" y1="320.3384" x2="628.2357" y2="320.3384">
		<stop  offset="0" style="stop-color:#3D365F"/>
		<stop  offset="0.9985" style="stop-color:#58467F"/>
	</linearGradient>
	<path style="fill:url(#SVGID_00000101063356078762370110000010890435067884966294_);" d="M550.657,284.826
		c0,0-2.123,16.291,15.383,16.751c17.505,0.461,41.46-4.146,42.842-0.461c1.382,3.685-0.921,58.504,1.843,60.347
		c2.764,1.843,6.91,0.461,9.674,0s13.359-66.336,4.146-74.167c-9.213-7.831-50.38-9.014-50.38-9.014"/>
	
		<linearGradient id="SVGID_00000101063054764691242640000002541116394915667135_" gradientUnits="userSpaceOnUse" x1="553.7019" y1="307.9203" x2="640.3188" y2="307.9203">
		<stop  offset="0" style="stop-color:#3D365F"/>
		<stop  offset="0.9985" style="stop-color:#58467F"/>
	</linearGradient>
	<path style="fill:url(#SVGID_00000101063054764691242640000002541116394915667135_);" d="M553.706,283.612
		c0,0-0.701,16.414,16.778,15.354c17.479-1.06,40.949-8.529,42.645-4.978c1.697,3.552,13.874,47.806,16.787,49.402
		c2.913,1.596,6.924-0.141,9.637-0.839c2.714-0.699-1.928-60.69-11.786-67.692c-9.858-7.002-51.213,0.195-51.213,0.195"/>
	<g>
		<path style="fill:#2E4653;" d="M624.336,236.789l3.638,3.032c0.187,0.156,0.22,0.431,0.075,0.627l-6.724,9.078
			c-0.156,0.211-0.458,0.249-0.661,0.082l-3.299-2.7c-0.185-0.151-0.223-0.417-0.089-0.614l6.385-9.41
			C623.813,236.659,624.126,236.615,624.336,236.789z"/>
		<path style="fill:#FFFFFF;" d="M624.081,237.765l3.084,2.57c0.159,0.132,0.187,0.366,0.064,0.532l-5.7,7.695
			c-0.133,0.179-0.388,0.211-0.56,0.069l-2.797-2.288c-0.156-0.128-0.189-0.354-0.076-0.521l5.413-7.977
			C623.638,237.655,623.904,237.617,624.081,237.765z"/>
	</g>
	
		<linearGradient id="SVGID_00000123437817616995431880000005768897769529832620_" gradientUnits="userSpaceOnUse" x1="550.5871" y1="248.2275" x2="592.0877" y2="248.2275">
		<stop  offset="0" style="stop-color:#D88B2F"/>
		<stop  offset="1" style="stop-color:#E6BD4A"/>
	</linearGradient>
	<path style="fill:url(#SVGID_00000123437817616995431880000005768897769529832620_);" d="M581.241,208.062
		c-0.383-0.255-11.977-0.461-20.73,20.269c-8.753,20.73-10.13,57.214-9.902,59.241c0.228,2.027,20.958,0.645,25.564-5.343
		c4.607-5.988,8.22-8.359,8.22-8.359s-8.22-13.753,6.06-29.876C596.166,237.546,585.387,210.826,581.241,208.062z"/>
	
		<linearGradient id="SVGID_00000129925066360260789200000006081197157331655613_" gradientUnits="userSpaceOnUse" x1="569.8652" y1="238.8846" x2="627.3058" y2="238.8846">
		<stop  offset="0.0091" style="stop-color:#A46A6D"/>
		<stop  offset="1" style="stop-color:#B28E8E"/>
	</linearGradient>
	<path style="fill:url(#SVGID_00000129925066360260789200000006081197157331655613_);" d="M627.286,241.492
		c-6.387,4.422-8.844,3.931-7.861,2.948c0.983-0.983,0.983-2.457,0.983-2.457c-2.948,1.965-4.913,6.387-4.913,6.387l-0.05,0.224
		c-0.058-0.109-0.095-0.176-0.095-0.176c-2.802,2.802-22.726,2.958-26.462,2.024c-3.736-0.934-5.343-2.073-5.343-18.887
		c0-16.814-11.516-12.899-11.516-12.899c-5.177,4.633-0.589,32.157,8.753,38.696c8.93,6.251,32.331-2.931,35.19-4.568
		c4.636-0.383,7.876-4.414,7.876-4.414C627.778,245.423,627.286,241.492,627.286,241.492z"/>
	<g>
		
			<linearGradient id="SVGID_00000146459786863472031740000008840588392618096004_" gradientUnits="userSpaceOnUse" x1="447.3173" y1="222.6396" x2="501.5537" y2="222.6396">
			<stop  offset="0" style="stop-color:#3D365F"/>
			<stop  offset="0.9985" style="stop-color:#58467F"/>
		</linearGradient>
		<path style="fill:url(#SVGID_00000146459786863472031740000008840588392618096004_);" d="M478.193,223.188
			c0,0,0.041-0.415,0.052-1.096c-0.01,0.008-0.02,0.016-0.03,0.024C478.14,222.513,478.126,222.884,478.193,223.188z"/>
		
			<linearGradient id="SVGID_00000001636605771114672120000008926463265828116875_" gradientUnits="userSpaceOnUse" x1="457.1862" y1="222.6396" x2="484.2068" y2="222.6396">
			<stop  offset="0.0019" style="stop-color:#E5B5BB"/>
			<stop  offset="1" style="stop-color:#EBD1BD"/>
		</linearGradient>
		<path style="fill:url(#SVGID_00000001636605771114672120000008926463265828116875_);" d="M478.193,223.188
			c0,0,0.041-0.415,0.052-1.096c-0.01,0.008-0.02,0.016-0.03,0.024C478.14,222.513,478.126,222.884,478.193,223.188z"/>
		
			<linearGradient id="SVGID_00000046319602432168458360000006834666211212357311_" gradientUnits="userSpaceOnUse" x1="447.3225" y1="227.5421" x2="501.5497" y2="227.5421">
			<stop  offset="0" style="stop-color:#3D365F"/>
			<stop  offset="0.9985" style="stop-color:#58467F"/>
		</linearGradient>
		<path style="fill:url(#SVGID_00000046319602432168458360000006834666211212357311_);" d="M482.769,218.347
			c-1.305-0.353-2.447,0.264-3.271,1.202c-0.147,0.66-0.352,1.258-0.64,1.748c-0.229,0.389-0.43,0.642-0.613,0.795
			c-0.011,0.681-0.052,1.096-0.052,1.096c-0.066-0.304-0.053-0.674,0.022-1.072c-1.522,1.193-1.63-5.1-4.146-4.519
			c-2.829,0.653-3.265-3.265-3.265-3.265s-6.095-2.177-7.836,1.524c-1.062,2.258-3.66,4.106-5.527,5.207
			c0.614,4.876,2.488,10.409,6.949,15.323c0.866,0.954,2.215,1.329,3.447,0.926c1.736-0.566,4.258-1.635,6.179-3.471
			c0,0,0.937,5.419-0.779,7.548l10.791-0.168c0,0-5.073-10.452-1.83-15.323C483.564,223.844,485.629,219.122,482.769,218.347z"/>
		
			<linearGradient id="SVGID_00000132047871566784281600000016728787819520817824_" gradientUnits="userSpaceOnUse" x1="457.1897" y1="227.5421" x2="484.2059" y2="227.5421">
			<stop  offset="0.0019" style="stop-color:#E5B5BB"/>
			<stop  offset="1" style="stop-color:#EBD1BD"/>
		</linearGradient>
		<path style="fill:url(#SVGID_00000132047871566784281600000016728787819520817824_);" d="M482.769,218.347
			c-1.305-0.353-2.447,0.264-3.271,1.202c-0.147,0.66-0.352,1.258-0.64,1.748c-0.229,0.389-0.43,0.642-0.613,0.795
			c-0.011,0.681-0.052,1.096-0.052,1.096c-0.066-0.304-0.053-0.674,0.022-1.072c-1.522,1.193-1.63-5.1-4.146-4.519
			c-2.829,0.653-3.265-3.265-3.265-3.265s-6.095-2.177-7.836,1.524c-1.062,2.258-3.66,4.106-5.527,5.207
			c0.614,4.876,2.488,10.409,6.949,15.323c0.866,0.954,2.215,1.329,3.447,0.926c1.736-0.566,4.258-1.635,6.179-3.471
			c0,0,0.937,5.419-0.779,7.548l10.791-0.168c0,0-5.073-10.452-1.83-15.323C483.564,223.844,485.629,219.122,482.769,218.347z"/>
		
			<linearGradient id="SVGID_00000064352793896622151840000016880267061296125629_" gradientUnits="userSpaceOnUse" x1="447.3225" y1="213.8963" x2="501.5497" y2="213.8963">
			<stop  offset="0" style="stop-color:#3D365F"/>
			<stop  offset="0.9985" style="stop-color:#58467F"/>
		</linearGradient>
		<path style="fill:url(#SVGID_00000064352793896622151840000016880267061296125629_);" d="M458.745,207.891
			c18.287-4.109,19.541,9.773,19.502,14.066c0.184-0.803,0.625-1.697,1.25-2.408c0.96-4.328-0.777-11.541-0.777-11.541
			l-11.399-2.383l-9.577,0.871l-2.612,2.83v10.883l0.218,1.959c0,0,0.897-0.401,2.091-1.105
			C456.523,213.778,458.424,207.963,458.745,207.891z"/>
		
			<linearGradient id="SVGID_00000058580917324926130820000002506372133464006321_" gradientUnits="userSpaceOnUse" x1="447.3317" y1="222.0365" x2="501.5428" y2="222.0365">
			<stop  offset="0" style="stop-color:#3D365F"/>
			<stop  offset="0.9985" style="stop-color:#58467F"/>
		</linearGradient>
		<path style="fill:url(#SVGID_00000058580917324926130820000002506372133464006321_);" d="M478.215,222.116
			c0.01-0.008,0.02-0.016,0.03-0.024c0.001-0.045,0.002-0.087,0.002-0.135C478.235,222.011,478.225,222.063,478.215,222.116z"/>
		
			<linearGradient id="SVGID_00000126283149551897992970000008109603173775633322_" gradientUnits="userSpaceOnUse" x1="457.196" y1="222.0365" x2="484.204" y2="222.0365">
			<stop  offset="0.0019" style="stop-color:#E5B5BB"/>
			<stop  offset="1" style="stop-color:#EBD1BD"/>
		</linearGradient>
		<path style="fill:url(#SVGID_00000126283149551897992970000008109603173775633322_);" d="M478.215,222.116
			c0.01-0.008,0.02-0.016,0.03-0.024c0.001-0.045,0.002-0.087,0.002-0.135C478.235,222.011,478.225,222.063,478.215,222.116z"/>
		
			<linearGradient id="SVGID_00000096019999657742713430000006162147868949930672_" gradientUnits="userSpaceOnUse" x1="457.2136" y1="225.6973" x2="486.8795" y2="220.53">
			<stop  offset="0" style="stop-color:#3D365F"/>
			<stop  offset="0.9985" style="stop-color:#58467F"/>
		</linearGradient>
		<path style="fill:url(#SVGID_00000096019999657742713430000006162147868949930672_);" d="M478.215,222.116
			c0.01-0.008,0.02-0.016,0.03-0.024c0.001-0.045,0.002-0.087,0.002-0.135C478.235,222.011,478.225,222.063,478.215,222.116z"/>
		
			<linearGradient id="SVGID_00000077285593654482420820000013682479420692582808_" gradientUnits="userSpaceOnUse" x1="447.3225" y1="214.7031" x2="501.5498" y2="214.7031">
			<stop  offset="0" style="stop-color:#3D365F"/>
			<stop  offset="0.9985" style="stop-color:#58467F"/>
		</linearGradient>
		<path style="fill:url(#SVGID_00000077285593654482420820000013682479420692582808_);" d="M462.968,215.855
			c1.741-3.7,7.836-1.524,7.836-1.524s0.435,3.918,3.265,3.265c2.515-0.58,2.624,5.712,4.146,4.519
			c0.01-0.053,0.02-0.105,0.032-0.159c0.039-4.293-1.214-18.175-19.502-14.066c-0.322,0.072-2.222,5.887-1.305,13.171
			C459.308,219.961,461.906,218.113,462.968,215.855z"/>
		
			<linearGradient id="SVGID_00000005248279453879433450000017770966901574607501_" gradientUnits="userSpaceOnUse" x1="457.1927" y1="214.7031" x2="484.2089" y2="214.7031">
			<stop  offset="0.0019" style="stop-color:#E5B5BB"/>
			<stop  offset="1" style="stop-color:#EBD1BD"/>
		</linearGradient>
		<path style="fill:url(#SVGID_00000005248279453879433450000017770966901574607501_);" d="M462.968,215.855
			c1.741-3.7,7.836-1.524,7.836-1.524s0.435,3.918,3.265,3.265c2.515-0.58,2.624,5.712,4.146,4.519
			c0.01-0.053,0.02-0.105,0.032-0.159c0.039-4.293-1.214-18.175-19.502-14.066c-0.322,0.072-2.222,5.887-1.305,13.171
			C459.308,219.961,461.906,218.113,462.968,215.855z"/>
		
			<linearGradient id="SVGID_00000128458407704234257800000007296759454288845492_" gradientUnits="userSpaceOnUse" x1="447.3225" y1="220.8203" x2="501.5498" y2="220.8203">
			<stop  offset="0" style="stop-color:#3D365F"/>
			<stop  offset="0.9985" style="stop-color:#58467F"/>
		</linearGradient>
		<path style="fill:url(#SVGID_00000128458407704234257800000007296759454288845492_);" d="M478.245,222.092
			c0.182-0.153,0.384-0.406,0.613-0.795c0.288-0.49,0.493-1.087,0.64-1.748c-0.626,0.712-1.066,1.605-1.25,2.408
			C478.247,222.005,478.246,222.046,478.245,222.092z"/>
		
			<linearGradient id="SVGID_00000124865238922635777430000014318685247292217749_" gradientUnits="userSpaceOnUse" x1="457.1897" y1="220.8203" x2="484.2058" y2="220.8203">
			<stop  offset="0.0019" style="stop-color:#E5B5BB"/>
			<stop  offset="1" style="stop-color:#EBD1BD"/>
		</linearGradient>
		<path style="fill:url(#SVGID_00000124865238922635777430000014318685247292217749_);" d="M478.245,222.092
			c0.182-0.153,0.384-0.406,0.613-0.795c0.288-0.49,0.493-1.087,0.64-1.748c-0.626,0.712-1.066,1.605-1.25,2.408
			C478.247,222.005,478.246,222.046,478.245,222.092z"/>
		
			<linearGradient id="SVGID_00000014595873884503742110000001193543310333169084_" gradientUnits="userSpaceOnUse" x1="-240.5152" y1="349.687" x2="730.1169" y2="180.622">
			<stop  offset="0" style="stop-color:#3D365F"/>
			<stop  offset="0.9985" style="stop-color:#58467F"/>
		</linearGradient>
		<path style="fill:url(#SVGID_00000014595873884503742110000001193543310333169084_);" d="M499.226,222.449
			c3.676-6.487-1.514-14.487-6.054-14.487c-4.541,0-2.162-9.298-8.216-11.892c-6.054-2.595-11.367,5.908-11.367,5.908
			s-2.296-4.776-8.974-4.776c-9.55,0-6.687,11.409-12.092,13.355c-5.405,1.946-0.432,12.541-4.324,17.298
			c-3.892,4.757,6.487,6.487,6.054,11.243c-0.432,4.757,3.46,10.162,8.433,8.433c4.973-1.73,8.865,8,13.406,4.325
			c4.541-3.676,9.73-2.162,14.919-0.216c5.189,1.946,3.46-9.081,8.865-12.757C505.28,235.206,495.55,228.935,499.226,222.449z
			 M484.027,241.221l-10.791,0.168c1.716-2.13,0.779-7.548,0.779-7.548c-1.921,1.836-4.442,2.905-6.179,3.471
			c-1.233,0.402-2.581,0.027-3.447-0.926c-4.461-4.914-6.335-10.447-6.949-15.323c1.867-1.101,4.465-2.95,5.527-5.207
			c1.741-3.7,7.836-1.524,7.836-1.524s0.435,3.918,3.265,3.265c2.515-0.58,2.624,5.712,4.146,4.519
			c0.01-0.053,0.02-0.105,0.032-0.159c-0.001,0.048-0.002,0.089-0.002,0.135c0.182-0.153,0.384-0.406,0.613-0.795
			c0.288-0.49,0.493-1.087,0.64-1.748c0.824-0.938,1.967-1.555,3.271-1.202c2.86,0.775,0.796,5.497-0.572,7.551
			C478.954,230.769,484.027,241.221,484.027,241.221z"/>
		<path style="fill:#ECB7B4;" d="M449.298,261.045c0,0-10.047,31.38,1.782,30.274c11.83-1.106,2.572-16.668,5.905-24.768
			C460.318,258.452,451.891,259.1,449.298,261.045z"/>
		<path style="fill:#232F4A;" d="M503.292,344.447c0.724-2.142,21-64.501,21-64.501h-55.034l4.731,61.36L503.292,344.447z"/>
		<g>
			<polygon style="fill:#232F4A;" points="446.569,338.259 505.465,339.072 502.812,344.353 448.692,344.353 			"/>
			<polygon style="fill:#232F4A;" points="459.902,342.728 455.372,415.85 459.205,415.85 467.569,342.728 			"/>
			<polygon style="fill:#232F4A;" points="500.879,342.728 503.643,415.85 500.264,415.85 494.12,342.728 			"/>
		</g>
		<path style="fill:#1C3842;" d="M460.328,410.376l-1.207,7.378c0,0-6.759,0.476-6.276,2.38c0.483,1.904,10.138-0.714,10.138-0.714
			s3.621-8.806,0-9.997C459.362,408.234,460.328,410.376,460.328,410.376z"/>
		
			<linearGradient id="SVGID_00000013902904163583391760000015401344609929895319_" gradientUnits="userSpaceOnUse" x1="408.219" y1="358.1697" x2="489.6137" y2="358.1697">
			<stop  offset="0.0019" style="stop-color:#E5B5BB"/>
			<stop  offset="1" style="stop-color:#EBD1BD"/>
		</linearGradient>
		<path style="fill:url(#SVGID_00000013902904163583391760000015401344609929895319_);" d="M481.999,304.631
			c0,0,18.931,22.754-2.907,28.327c-12.894,3.29-47.295-3.853-47.295-3.853s-5.186,35.651-20.44,82.178l-3.138,0.955
			c0,0,1.6-77.543,10.052-87.787C426.723,314.208,459.795,301.321,481.999,304.631z"/>
		
			<linearGradient id="SVGID_00000000915354254171725830000011972907921364646035_" gradientUnits="userSpaceOnUse" x1="431.7594" y1="357.9833" x2="500.3116" y2="357.9833">
			<stop  offset="0.0019" style="stop-color:#E5B5BB"/>
			<stop  offset="1" style="stop-color:#EBD1BD"/>
		</linearGradient>
		<path style="fill:url(#SVGID_00000000915354254171725830000011972907921364646035_);" d="M496.775,306.128
			c0,0,12.642,25.795-9.882,25.57c-16.06-0.16-38.152,7.037-38.152,7.037s17.138,26.419,14.724,70.689l-3.138,0.952
			c0,0-35.724-74.26-27.275-84.494C441.5,315.648,474.569,302.795,496.775,306.128z"/>
		<g>
			<defs>
				<path id="XMLID_19_" d="M501.442,312.992c0.034-0.54-9.494-28.761-4.667-46.374c4.827-17.613-5.069-23.563-6.517-24.515
					c-1.448-0.952-22.448-2.856-27.275,1.666c-4.827,4.522-10.379,23.563-4.345,30.703c6.034,7.14,7.483,31.259-0.241,31.933
					c0,0,13.034-0.992,18.827,5.434C483.017,318.266,500.798,323.188,501.442,312.992z"/>
			</defs>
			
				<linearGradient id="XMLID_00000173150913619482377500000008152250014043685812_" gradientUnits="userSpaceOnUse" x1="464.3041" y1="267.512" x2="502.0164" y2="292.8657">
				<stop  offset="0.0068" style="stop-color:#67A1C2"/>
				<stop  offset="0.9951" style="stop-color:#3E5B97"/>
			</linearGradient>
			
				<use xlink:href="#XMLID_19_"  style="overflow:visible;fill:url(#XMLID_00000173150913619482377500000008152250014043685812_);"/>
			<clipPath id="XMLID_00000122707088913127371390000017723767983489989264_">
				<use xlink:href="#XMLID_19_"  style="overflow:visible;"/>
			</clipPath>
			
				<linearGradient id="SVGID_00000042002470538581683550000014032664261437673108_" gradientUnits="userSpaceOnUse" x1="464.2993" y1="247.7493" x2="487.1526" y2="247.7493">
				<stop  offset="0.0019" style="stop-color:#E5B5BB"/>
				<stop  offset="1" style="stop-color:#EBD1BD"/>
			</linearGradient>
			
				<path style="clip-path:url(#XMLID_00000122707088913127371390000017723767983489989264_);fill:url(#SVGID_00000042002470538581683550000014032664261437673108_);" d="
				M469.258,240.913c0,0-12.069,12.853,1.448,16.423c13.517,3.57,18.103-14.519,15.931-18.327
				C484.465,235.2,469.258,240.913,469.258,240.913z"/>
		</g>
		<path style="fill:#E49B4B;" d="M470.887,289.603l-0.18-0.137C470.631,289.558,470.7,289.602,470.887,289.603z"/>
		
			<linearGradient id="SVGID_00000124147515642971586350000014012345279352632455_" gradientUnits="userSpaceOnUse" x1="486.7309" y1="255.1387" x2="503.1206" y2="255.1387">
			<stop  offset="0.0068" style="stop-color:#67A1C2"/>
			<stop  offset="0.9951" style="stop-color:#3E5B97"/>
		</linearGradient>
		<path style="fill:url(#SVGID_00000124147515642971586350000014012345279352632455_);" d="M503.098,266.879
			c0.648-22.039-13.111-24.776-13.111-24.776s-2.629,6.188-3.213,9.52c-0.363,2.068,1.549,10.226,6.602,16.552
			C495.526,265.73,497.845,267.777,503.098,266.879z"/>
		
			<linearGradient id="SVGID_00000158726523468363004390000008861678689356682650_" gradientUnits="userSpaceOnUse" x1="450.1999" y1="252.381" x2="435.4742" y2="247.9635">
			<stop  offset="0.0068" style="stop-color:#67A1C2"/>
			<stop  offset="0.9951" style="stop-color:#3E5B97"/>
		</linearGradient>
		<path style="fill:url(#SVGID_00000158726523468363004390000008861678689356682650_);" d="M449.298,261.045
			c1.296-12.964,15.374-18.466,15.374-18.466s-2.515,5.712-1.931,9.045c0.363,2.068-1.924,10.245-6.976,16.571
			C453.614,265.75,454.551,261.943,449.298,261.045z"/>
		<path style="fill:#1C3842;" d="M408.401,412.514c0,0-16.635,4.736-13.947,6.547c2.688,1.811,18.774-0.95,19.355-2.278
			c0.582-1.327-2.237-5.728-2.237-5.728L408.401,412.514z"/>
		
			<linearGradient id="SVGID_00000117675578247463861560000014227088588146727301_" gradientUnits="userSpaceOnUse" x1="437.6307" y1="285.7761" x2="470.5164" y2="285.7761">
			<stop  offset="0" style="stop-color:#DEDDE9"/>
			<stop  offset="0.994" style="stop-color:#B0BFE8"/>
		</linearGradient>
		<path style="fill:url(#SVGID_00000117675578247463861560000014227088588146727301_);" d="M439.145,271.926l20.496-1.863
			c0.76-0.069,1.469,0.387,1.721,1.107l9.06,25.887c0.352,1.007-0.32,2.08-1.38,2.202l-19.371,2.228
			c-0.752,0.086-1.467-0.345-1.741-1.051l-10.186-26.251C437.344,273.153,438.043,272.026,439.145,271.926z"/>
		<path style="fill:#2C5162;" d="M453.685,285.041c-1.247-0.125-2.157-1.237-2.033-2.485c0.036-0.362,0.157-0.693,0.339-0.982
			c-1.207,0.247-2.115,1.315-2.115,2.595c0,1.462,1.186,2.648,2.648,2.648c1.28,0,2.348-0.908,2.595-2.116
			C454.705,284.962,454.207,285.093,453.685,285.041z"/>
		
			<linearGradient id="SVGID_00000113323819951124141750000009215800110309792161_" gradientUnits="userSpaceOnUse" x1="466.9705" y1="276.3919" x2="503.1484" y2="276.3919">
			<stop  offset="0.0019" style="stop-color:#E5B5BB"/>
			<stop  offset="1" style="stop-color:#EBD1BD"/>
		</linearGradient>
		<path style="fill:url(#SVGID_00000113323819951124141750000009215800110309792161_);" d="M491.501,265.413
			c0,0,0.689,15.435-1.492,17.616c-2.181,2.181-19.181,6.179-23.038,5.27l1.822,4.1c0,0,24.851,1.533,29.939-3.555
			c5.088-5.088,4.393-21.814,4.377-26.535S493.72,261.608,491.501,265.413z"/>
		<path style="fill:#ECB7B4;" d="M466.021,284.483c0,0-8.723,0.727-7.269,2.908c1.454,2.181,2.181,5.088,4.361,5.088
			c2.181,0,5.264,0.487,5.176-1.21C468.202,289.571,467.475,285.209,466.021,284.483z"/>
		
			<linearGradient id="SVGID_00000044893048564737086000000002023643620480718477_" gradientUnits="userSpaceOnUse" x1="406.5174" y1="350.9928" x2="503.8503" y2="350.9928">
			<stop  offset="0.007" style="stop-color:#CA8194"/>
			<stop  offset="1" style="stop-color:#B7496A"/>
		</linearGradient>
		<path style="fill:url(#SVGID_00000044893048564737086000000002023643620480718477_);" d="M501.296,314.072
			c0,0,10.024,17.962-9.644,20.387c-19.667,2.425-43.793,1.252-41.777,4.107c2.016,2.855,14.331,26.838,14.98,50.173
			c0,0-13.612,9.075-14.908,7.778c-1.296-1.296-20.538-46.711-19.344-60.303c0,0-9.825,56.414-11.121,57.062
			c-1.296,0.648-12.964-2.593-12.964-4.537c0-1.945,4.537-61.578,11.668-68.709c7.13-7.13,46.67-16.853,58.986-14.26"/>
		<g>
			<path style="fill:none;stroke:#4F2724;stroke-width:0.187;stroke-miterlimit:10;" d="M466.305,234.218
				c0,0,2.937-0.685,3.289-3.055"/>
			<path style="opacity:0.59;fill:none;stroke:#230F0E;stroke-width:0.1386;stroke-miterlimit:10;" d="M464.199,224.01
				c0.056,0.164-0.388,5.803,0.108,6.182c0.496,0.379,2.301,0.309,2.301,0.309"/>
			<path style="fill:#230F0E;" d="M460.522,223.92c0.081,0.458,0.023,0.851-0.13,0.878c-0.153,0.027-0.342-0.322-0.422-0.78
				c-0.081-0.458-0.023-0.851,0.13-0.878C460.252,223.113,460.441,223.462,460.522,223.92z"/>
			<path style="fill:#230F0E;" d="M469.656,222.404c0.081,0.458,0.022,0.851-0.13,0.877c-0.152,0.027-0.342-0.322-0.422-0.78
				c-0.081-0.458-0.022-0.851,0.13-0.878C469.386,221.597,469.575,221.946,469.656,222.404z"/>
			<g>
				
					<linearGradient id="SVGID_00000105417672324372631030000014746802557426961304_" gradientUnits="userSpaceOnUse" x1="467.6711" y1="220.3381" x2="471.0218" y2="220.3381">
					<stop  offset="0" style="stop-color:#3D365F"/>
					<stop  offset="0.9985" style="stop-color:#58467F"/>
				</linearGradient>
				<path style="fill:url(#SVGID_00000105417672324372631030000014746802557426961304_);" d="M467.9,220.653
					c0.915-0.824,2.118-0.842,2.879,0.201c0.106,0.146,0.32-0.036,0.214-0.182c-0.846-1.159-2.24-1.165-3.275-0.233
					C467.584,220.559,467.765,220.774,467.9,220.653L467.9,220.653z"/>
			</g>
			<g>
				
					<linearGradient id="SVGID_00000019639410680990176650000000236683684652291519_" gradientUnits="userSpaceOnUse" x1="458.223" y1="222.2451" x2="461.3137" y2="222.2451">
					<stop  offset="0" style="stop-color:#3D365F"/>
					<stop  offset="0.9985" style="stop-color:#58467F"/>
				</linearGradient>
				<path style="fill:url(#SVGID_00000019639410680990176650000000236683684652291519_);" d="M461.227,221.584
					c-1.292-0.521-2.599-0.039-2.997,1.339c-0.05,0.173,0.213,0.271,0.263,0.097c0.358-1.24,1.495-1.634,2.637-1.174
					C461.297,221.915,461.394,221.651,461.227,221.584L461.227,221.584z"/>
			</g>
			<path style="opacity:0.1;fill:#E07E73;" d="M473.886,229.16c0.215,1.221-0.394,2.349-1.36,2.519
				c-0.966,0.17-1.924-0.681-2.14-1.902c-0.215-1.221,0.394-2.349,1.36-2.519C472.713,227.088,473.671,227.939,473.886,229.16z"/>
		</g>
	</g>
	<g>
		<path style="fill:#1C3842;" d="M143.411,415.947c0,0,12.052-5.165,17.217,2.869H137.94c-0.807,0-1.143-1.033-0.49-1.508
			l4.24-3.083L143.411,415.947z"/>
		
			<linearGradient id="SVGID_00000177459673598992964720000010509654320348153760_" gradientUnits="userSpaceOnUse" x1="165.3672" y1="338.378" x2="95.5483" y2="388.9141">
			<stop  offset="0.0068" style="stop-color:#67A1C2"/>
			<stop  offset="0.9951" style="stop-color:#3E5B97"/>
		</linearGradient>
		<path style="fill:url(#SVGID_00000177459673598992964720000010509654320348153760_);" d="M91.717,329.84
			c0,0-0.045,0.343-0.076,0.935c-0.205,3.822,0.116,18.041,16.281,17.736c18.671-0.352,48.967,1.057,48.967,1.057
			s-16.91,26.069-17.967,66.229h4.932c0,0,40.16-67.991,33.115-78.911c-7.046-10.921-47.206-10.216-47.206-10.216"/>
		<g>
			<defs>
				<path id="XMLID_18_" d="M120.141,251.255c0,0-25.681,14.685-29.729,78.467c0,0,8.01,12.567,22.584,4.16
					c14.574-8.407,14.921-7.46,14.921-7.46s3.707-33.637,9.994-42.313C144.197,275.433,120.141,251.255,120.141,251.255z"/>
			</defs>
			
				<linearGradient id="XMLID_00000025416579581416778710000006087978485049472691_" gradientUnits="userSpaceOnUse" x1="90.4116" y1="294.0172" x2="138.9586" y2="294.0172">
				<stop  offset="0" style="stop-color:#3D365F"/>
				<stop  offset="0.9985" style="stop-color:#58467F"/>
			</linearGradient>
			
				<use xlink:href="#XMLID_18_"  style="overflow:visible;fill:url(#XMLID_00000025416579581416778710000006087978485049472691_);"/>
			<clipPath id="XMLID_00000029759174071226426300000016072692644530466972_">
				<use xlink:href="#XMLID_18_"  style="overflow:visible;"/>
			</clipPath>
			<path style="opacity:0.32;clip-path:url(#XMLID_00000029759174071226426300000016072692644530466972_);fill:#7A2343;" d="
				M114.867,260.045c-0.283,0.41,8.357,22.105,23.213,30.838c14.856,8.734,0.645-27.698,0.645-27.698L114.867,260.045z"/>
		</g>
		
			<linearGradient id="SVGID_00000013156709395988995780000014692226183978069657_" gradientUnits="userSpaceOnUse" x1="120.2076" y1="247.0526" x2="168.423" y2="247.0526">
			<stop  offset="0.0091" style="stop-color:#A46A6D"/>
			<stop  offset="1" style="stop-color:#B28E8E"/>
		</linearGradient>
		<path style="fill:url(#SVGID_00000013156709395988995780000014692226183978069657_);" d="M164.333,232.458l0,0.009
			c-1.257-5.372-2.875-9.558-2.875-9.558l-23.406-0.448l-0.956,14.662c-6.244,7.156-16.888,13.897-16.888,13.897
			c1.68,11.423,14.055,20.625,14.055,20.625c0.764-7.692,7.622-16.275,11.758-20.416c4.15,3.382,9.251,5.771,14.299,3.617
			c4.085-1.743,5.426-6.227,5.458-11.3c0.639-0.221,1.473-0.647,2.311-1.484C169.81,240.34,164.333,232.458,164.333,232.458z"/>
		
			<linearGradient id="SVGID_00000021113990397945439240000016047853164435519919_" gradientUnits="userSpaceOnUse" x1="131.4157" y1="235.0175" x2="167.8853" y2="235.0175">
			<stop  offset="0" style="stop-color:#3D365F"/>
			<stop  offset="0.9985" style="stop-color:#58467F"/>
		</linearGradient>
		<path style="fill:url(#SVGID_00000021113990397945439240000016047853164435519919_);" d="M137.438,217.151
			c11.301-0.4,7.031-7.976,13.59-1.998c6.559,5.977,20.618-14.123,15.913,1.084c0,0,1.545,8.208-9.756,8.608
			c-11.3,0.4-9.627,5.333-9.627,5.333s-1.098,3.909-1.703,5.986c-0.232,0.796,0.003,1.652,0.612,2.213
			c2.273,2.093,6.523,5.517,9.975,5.009c4.942-0.727,8.641-0.657,9.925-0.177c1.283,0.481,1.223,11.542-4.591,14.921
			c-5.814,3.379-12.977,0.353-14.049-2.645c-1.072-2.998-1.495-4.286-1.495-4.286s-1.201-8.162-2.731-12.57
			c-1.885,0.875-4.679,1.405-6.335-1.874c0,0-5.487-2.979-4.088-6.341C134.476,227.053,126.137,217.551,137.438,217.151z"/>
		
			<linearGradient id="SVGID_00000174562218297692136520000000799205396279001491_" gradientUnits="userSpaceOnUse" x1="140.8271" y1="237.5836" x2="147.822" y2="237.5836">
			<stop  offset="0.0091" style="stop-color:#A46A6D"/>
			<stop  offset="1" style="stop-color:#B28E8E"/>
		</linearGradient>
		<path style="fill:url(#SVGID_00000174562218297692136520000000799205396279001491_);" d="M142.091,239.506
			c1.486,1.727,3.691,2.266,4.925,1.204c1.234-1.062,1.029-3.322-0.458-5.049c-1.486-1.727-3.691-2.267-4.925-1.205
			C140.4,235.518,140.605,237.779,142.091,239.506z"/>
		<polygon style="fill:#2D1E1A;" points="93.478,347.102 132.582,347.806 130.82,352.386 94.887,352.386 		"/>
		<polygon style="fill:#2D1E1A;" points="98.41,350.977 93.831,414.388 97.706,414.388 106.16,350.977 		"/>
		<polygon style="fill:#2D1E1A;" points="128.002,350.977 131.173,414.388 127.297,414.388 120.252,350.977 		"/>
		
			<linearGradient id="SVGID_00000093857376962063631500000004660159221365198737_" gradientUnits="userSpaceOnUse" x1="134.0113" y1="287.7458" x2="191.0566" y2="287.7458">
			<stop  offset="0.0091" style="stop-color:#A46A6D"/>
			<stop  offset="1" style="stop-color:#B28E8E"/>
		</linearGradient>
		<path style="fill:url(#SVGID_00000093857376962063631500000004660159221365198737_);" d="M191.043,295.432
			c0.705-0.705-26.715-3.996-28.101-3.742c-0.959,0.176-5.162-7.972-11.795-19.369c-12.241,2.614-15.989,8.758-17.136,12.353
			c10.57,10.578,21.828,18.671,24.949,18.492c5.671-0.325,30.935-2.569,30.935-2.569S189.895,296.58,191.043,295.432z"/>
		
			<linearGradient id="SVGID_00000022548025631710985070000010914246898540512415_" gradientUnits="userSpaceOnUse" x1="113.3185" y1="266.1701" x2="151.9874" y2="266.1701">
			<stop  offset="0" style="stop-color:#3D365F"/>
			<stop  offset="0.9985" style="stop-color:#58467F"/>
		</linearGradient>
		<path style="fill:url(#SVGID_00000022548025631710985070000010914246898540512415_);" d="M151.987,272.627
			c-3.089-5.307-6.68-11.286-10.701-17.473c-13.055-20.084-27.968,2.309-27.968,2.309c3.04,9.213,11.71,19.046,20.743,28.086
			C135.262,281.79,139.182,275.362,151.987,272.627z"/>
		
			<linearGradient id="SVGID_00000011737130355953330800000013236815850415429051_" gradientUnits="userSpaceOnUse" x1="187.6709" y1="296.8" x2="212.8508" y2="296.8">
			<stop  offset="0.0091" style="stop-color:#A46A6D"/>
			<stop  offset="1" style="stop-color:#B28E8E"/>
		</linearGradient>
		<path style="fill:url(#SVGID_00000011737130355953330800000013236815850415429051_);" d="M188.875,300.752
			c0,0,5.31,4.779,12.744-3.717c0,0,3.717-3.717,9.027-0.531c0,0,1.062,1.593,2.124,0.531s-8.496-9.027-14.337-3.717
			c0,0-7.614,1.459-9.648,2.588C188.785,295.906,186.22,300.221,188.875,300.752z"/>
		<polygon style="fill:#2D1E1A;" points="74.546,275.346 94.058,352.246 99.796,351.099 80.284,275.346 		"/>
		<path style="fill:#230F0E;" d="M160.373,234.09c-0.156,0.58-0.439,1.007-0.632,0.955c-0.193-0.052-0.224-0.564-0.068-1.144
			c0.156-0.58,0.439-1.007,0.632-0.955C160.499,232.998,160.529,233.51,160.373,234.09z"/>
		<g>
			<path style="fill:#3A1817;" d="M161.9,231.168c-1.226-1.316-3.019-1.467-4.238-0.072c-0.153,0.175,0.101,0.433,0.255,0.258
				c1.098-1.255,2.643-1.094,3.726,0.069C161.802,231.594,162.059,231.339,161.9,231.168L161.9,231.168z"/>
		</g>
		<g>
			
				<linearGradient id="SVGID_00000011009047638352236980000003377955088616134833_" gradientUnits="userSpaceOnUse" x1="157.711" y1="248.8182" x2="163.9209" y2="248.8182">
				<stop  offset="0.0091" style="stop-color:#A46A6D"/>
				<stop  offset="1" style="stop-color:#B28E8E"/>
			</linearGradient>
			<path style="fill:url(#SVGID_00000011009047638352236980000003377955088616134833_);" d="M157.814,248.532
				c1.816,1.092,4.195,1.421,6.01,0.185c0.228-0.155,0.012-0.528-0.217-0.372c-1.689,1.15-3.889,0.829-5.576-0.185
				C157.793,248.017,157.576,248.389,157.814,248.532L157.814,248.532z"/>
		</g>
		<path style="fill:#4F5959;" d="M199.652,302.893c-0.574,0.574-4.591-2.87-4.591-2.87l40.172-0.574v2.87L199.652,302.893z"/>
		<polygon style="fill:#4F5959;" points="233.128,299.449 242.119,257.556 245.562,258.704 235.232,301.171 		"/>
	</g>
	
		<linearGradient id="SVGID_00000000183501093255702110000001958001353400298373_" gradientUnits="userSpaceOnUse" x1="181.8612" y1="354.6503" x2="608.8727" y2="354.6503">
		<stop  offset="0.007" style="stop-color:#CA8194"/>
		<stop  offset="1" style="stop-color:#B7496A"/>
	</linearGradient>
	<polygon style="fill:url(#SVGID_00000000183501093255702110000001958001353400298373_);" points="605.667,308.818 608.873,299.335 
		183.95,302.205 185.446,311.687 201.33,311.579 181.861,409.965 186.135,409.965 211.096,311.512 578.842,309.001 604.44,409.965 
		608.714,409.965 588.722,308.934 	"/>
	
		<linearGradient id="SVGID_00000054258900849493413010000002807578412850668711_" gradientUnits="userSpaceOnUse" x1="181.8612" y1="354.6503" x2="608.8727" y2="354.6503">
		<stop  offset="0.007" style="stop-color:#CA8194"/>
		<stop  offset="1" style="stop-color:#B7496A"/>
	</linearGradient>
	<polygon style="opacity:0.54;fill:url(#SVGID_00000054258900849493413010000002807578412850668711_);" points="605.667,308.818 
		608.873,299.335 183.95,302.205 185.446,311.687 201.33,311.579 181.861,409.965 186.135,409.965 211.096,311.512 578.842,309.001 
		604.44,409.965 608.714,409.965 588.722,308.934 	"/>
	<g>
		
			<linearGradient id="SVGID_00000142898348772809358490000013397714092343402429_" gradientUnits="userSpaceOnUse" x1="305.6711" y1="187.8072" x2="346.268" y2="187.8072">
			<stop  offset="0" style="stop-color:#3D365F"/>
			<stop  offset="0.9985" style="stop-color:#58467F"/>
		</linearGradient>
		<path style="fill:url(#SVGID_00000142898348772809358490000013397714092343402429_);" d="M307.022,177.983
			c-0.719,0.472-3.771,10.336,2.676,15.203c6.447,4.868,11.921,9.125,11.921,9.125s6.082,3.041,10.948,0
			c4.866-3.041,6.082-2.433,9.123-6.994c3.041-4.562,5.474-6.386,4.258-11.86C344.732,177.983,328.31,163.994,307.022,177.983z"/>
		<g>
			<defs>
				<path id="XMLID_17_" d="M308.239,372.004c0,0,5.474,14.61,5.474,16.422c0,1.812-10.935,6.095-9.123,7.907l15.787-1.128
					c0.673-0.048,1.159-0.66,1.049-1.326c-0.317-1.906-0.977-5.409-1.63-6.062c-0.906-0.906-2.433-21.288-2.433-21.288l-8.535,5.342
					"/>
			</defs>
			
				<linearGradient id="XMLID_00000147911201875649952550000009672556063475162029_" gradientUnits="userSpaceOnUse" x1="304.3869" y1="381.431" x2="321.4406" y2="381.431">
				<stop  offset="0.0019" style="stop-color:#E5B5BB"/>
				<stop  offset="1" style="stop-color:#EBD1BD"/>
			</linearGradient>
			
				<use xlink:href="#XMLID_17_"  style="overflow:visible;fill:url(#XMLID_00000147911201875649952550000009672556063475162029_);"/>
			<clipPath id="XMLID_00000025411868346636014920000013214714242440744364_">
				<use xlink:href="#XMLID_17_"  style="overflow:visible;"/>
			</clipPath>
			<path style="clip-path:url(#XMLID_00000025411868346636014920000013214714242440744364_);fill:#1C3842;" d="M311.888,388.425
				c0,0,7.907,1.216,12.164-1.825c4.258-3.041-0.608,14.597-0.608,14.597h-17.638l-8.515-4.866
				C297.291,396.332,303.373,381.735,311.888,388.425z"/>
		</g>
		<g>
			<defs>
				<path id="XMLID_16_" d="M343.237,373.697c0,0-3.979,14.742-3.979,16.553c0,1.812,10.935,6.095,9.123,7.907l-15.787-1.128
					c-0.672-0.048-1.159-0.661-1.048-1.326c0.317-1.906,0.977-5.409,1.63-6.062c0.906-0.906,1.825-23.112,1.825-23.112l9.143,7.167"
					/>
			</defs>
			
				<linearGradient id="XMLID_00000035498689373924108230000013557309147152532374_" gradientUnits="userSpaceOnUse" x1="331.5298" y1="382.3433" x2="348.5835" y2="382.3433">
				<stop  offset="0.0019" style="stop-color:#E5B5BB"/>
				<stop  offset="1" style="stop-color:#EBD1BD"/>
			</linearGradient>
			
				<use xlink:href="#XMLID_16_"  style="overflow:visible;fill:url(#XMLID_00000035498689373924108230000013557309147152532374_);"/>
			<clipPath id="XMLID_00000010992389727947591070000003500401628256026037_">
				<use xlink:href="#XMLID_16_"  style="overflow:visible;"/>
			</clipPath>
			<path style="clip-path:url(#XMLID_00000010992389727947591070000003500401628256026037_);fill:#1C3842;" d="M341.082,390.25
				c0,0-7.907,1.216-12.164-1.825c-4.258-3.041,0.608,14.597,0.608,14.597h17.638l8.515-4.866
				C355.68,398.157,349.597,383.56,341.082,390.25z"/>
		</g>
		
			<linearGradient id="SVGID_00000075864682264091609720000006123883105829185923_" gradientUnits="userSpaceOnUse" x1="283.5198" y1="331.6525" x2="354.6445" y2="331.6525">
			<stop  offset="0.0068" style="stop-color:#67A1C2"/>
			<stop  offset="0.9951" style="stop-color:#3E5B97"/>
		</linearGradient>
		<path style="fill:url(#SVGID_00000075864682264091609720000006123883105829185923_);" d="M312.237,285.306
			c0,0-21.516-7.6-27.857,1.46c-6.342,9.059,24.46,94.217,24.46,94.217s13.589-2.718,12.683-2.718
			c-0.906,0-9.965-69.757-12.683-74.286c0,0,16.307,4.53,23.554,0c0,0-1.812,53.45,0,74.286c0,0,9.965,1.812,12.683,0.906
			c0,0,16.307-92.405,6.342-95.123c-9.965-2.718-19.478,0.705-21.516,1.258S312.237,285.306,312.237,285.306z"/>
		<g>
			<defs>
				<path id="XMLID_14_" d="M315.635,206.591c-0.543,0.725,0,9.059-3.624,11.777c0,0-19.931,0-29.896,16.307
					c-9.965,16.307-6.342,35.331-3.624,38.049s9.965,10.871,30.802,9.965c20.837-0.906,37.143-0.906,46.203-17.213
					c0,0,8.153-29.896-25.366-46.202c0,0-8.153-0.906-5.436-12.683C324.694,206.591,318.352,202.967,315.635,206.591z"/>
			</defs>
			
				<linearGradient id="XMLID_00000063616661355246287230000003028817206801699718_" gradientUnits="userSpaceOnUse" x1="275.5471" y1="243.8694" x2="356.369" y2="243.8694">
				<stop  offset="0.0019" style="stop-color:#E5B5BB"/>
				<stop  offset="1" style="stop-color:#EBD1BD"/>
			</linearGradient>
			
				<use xlink:href="#XMLID_14_"  style="overflow:visible;fill:url(#XMLID_00000063616661355246287230000003028817206801699718_);"/>
			<clipPath id="XMLID_00000153683450602048322840000007420709997249499825_">
				<use xlink:href="#XMLID_14_"  style="overflow:visible;"/>
			</clipPath>
			
				<linearGradient id="SVGID_00000093877430270361902560000000496410556637884094_" gradientUnits="userSpaceOnUse" x1="256.749" y1="250.5283" x2="375.4262" y2="250.5283">
				<stop  offset="0" style="stop-color:#D88B2F"/>
				<stop  offset="1" style="stop-color:#E6BD4A"/>
			</linearGradient>
			
				<path style="clip-path:url(#XMLID_00000153683450602048322840000007420709997249499825_);fill:url(#SVGID_00000093877430270361902560000000496410556637884094_);" d="
				M303.857,215.65c-0.906,2.718,4.53,0,4.53,0s-0.906,9.965,12.683,9.965c13.589,0,19.931-18.119,19.931-18.119l34.425,30.802
				l-2.718,34.425l-28.99,12.683l-48.014,8.153l-35.331-23.554l-3.624-28.084l31.708-32.614L303.857,215.65z"/>
		</g>
		
			<linearGradient id="SVGID_00000065038101881516749310000016862399447797678771_" gradientUnits="userSpaceOnUse" x1="288.3683" y1="268.5266" x2="344.7653" y2="268.5266">
			<stop  offset="0" style="stop-color:#DEDDE9"/>
			<stop  offset="0.994" style="stop-color:#B0BFE8"/>
		</linearGradient>
		<path style="fill:url(#SVGID_00000065038101881516749310000016862399447797678771_);" d="M288.457,252.793
			c-0.841,0.336,4.53,29.896,7.247,31.708c2.718,1.812,38.955,0,42.579,0c3.624,0,7.247-30.802,6.342-31.708
			C343.719,251.887,292.986,250.981,288.457,252.793z"/>
		
			<linearGradient id="SVGID_00000065796268835334119510000011224753369293962369_" gradientUnits="userSpaceOnUse" x1="309.6923" y1="190.1692" x2="341.0007" y2="190.1692">
			<stop  offset="0.0019" style="stop-color:#E5B5BB"/>
			<stop  offset="1" style="stop-color:#EBD1BD"/>
		</linearGradient>
		<path style="fill:url(#SVGID_00000065796268835334119510000011224753369293962369_);" d="M312.917,174.883
			c-0.984,0.82-7.247,24.46,0.906,33.52c8.153,9.059,23.554,0,27.178-25.366C341.001,183.036,334.659,156.764,312.917,174.883z"/>
		<path style="opacity:0.59;fill:none;stroke:#230F0E;stroke-width:0.1444;stroke-miterlimit:10;" d="M322.624,193.753
			c-0.01,0.18-2.65,5.451-2.32,6.011c0.33,0.56,2.1,1.2,2.1,1.2"/>
		<path style="fill:#230F0E;" d="M318.309,192.039c-0.165,0.614-0.465,1.068-0.67,1.013s-0.237-0.598-0.072-1.212
			c0.165-0.614,0.465-1.068,0.67-1.013C318.442,190.882,318.474,191.424,318.309,192.039z"/>
		<path style="fill:#230F0E;" d="M329.294,195.452c-0.165,0.614-0.465,1.068-0.67,1.012c-0.205-0.055-0.237-0.598-0.072-1.212
			c0.165-0.614,0.465-1.068,0.67-1.012C329.427,194.295,329.459,194.837,329.294,195.452z"/>
		<g>
			
				<linearGradient id="SVGID_00000089549447933586011980000007870758180595351186_" gradientUnits="userSpaceOnUse" x1="331.5449" y1="187.5463" x2="335.6084" y2="187.5463">
				<stop  offset="0" style="stop-color:#3D365F"/>
				<stop  offset="0.9985" style="stop-color:#58467F"/>
			</linearGradient>
			<path style="fill:url(#SVGID_00000089549447933586011980000007870758180595351186_);" d="M331.781,186.789
				c1.612-0.491,3.114,0.183,3.453,1.917c0.047,0.242,0.418,0.141,0.37-0.101c-0.377-1.927-2.102-2.742-3.925-2.187
				C331.444,186.49,331.543,186.861,331.781,186.789L331.781,186.789z"/>
		</g>
		<g>
			
				<linearGradient id="SVGID_00000169542340779395084090000011205311752481002940_" gradientUnits="userSpaceOnUse" x1="317.2099" y1="182.4662" x2="321.8049" y2="182.4662">
				<stop  offset="0" style="stop-color:#3D365F"/>
				<stop  offset="0.9985" style="stop-color:#58467F"/>
			</linearGradient>
			<path style="fill:url(#SVGID_00000169542340779395084090000011205311752481002940_);" d="M321.752,182.86
				c-1.299-1.395-3.199-1.555-4.492-0.076c-0.162,0.185,0.107,0.459,0.27,0.273c1.163-1.33,2.801-1.16,3.949,0.073
				C321.648,183.311,321.92,183.041,321.752,182.86L321.752,182.86z"/>
		</g>
		<path style="opacity:0.1;fill:#E07E73;" d="M317.028,197.501c-0.44,1.638-1.849,2.683-3.146,2.335
			c-1.297-0.349-1.991-1.959-1.551-3.597c0.44-1.638,1.849-2.683,3.145-2.335C316.774,194.252,317.469,195.863,317.028,197.501z"/>
		<path style="opacity:0.1;fill:#E07E73;" d="M333.094,201.821c-0.44,1.638-1.849,2.683-3.146,2.335
			c-1.297-0.349-1.991-1.959-1.551-3.597c0.44-1.638,1.849-2.683,3.146-2.335C332.84,198.572,333.535,200.183,333.094,201.821z"/>
		<path style="fill:#2C5162;" d="M316.771,270.291c-1.044-0.104-1.805-1.035-1.701-2.079c0.03-0.303,0.132-0.58,0.284-0.821
			c-1.01,0.206-1.77,1.1-1.77,2.171c0,1.224,0.992,2.216,2.216,2.216c1.071,0,1.965-0.76,2.171-1.77
			C317.625,270.225,317.208,270.335,316.771,270.291z"/>
		
			<linearGradient id="SVGID_00000020384750274716535340000007241757953310863526_" gradientUnits="userSpaceOnUse" x1="307.0223" y1="187.7146" x2="311.888" y2="187.7146">
			<stop  offset="0.0019" style="stop-color:#E5B5BB"/>
			<stop  offset="1" style="stop-color:#EBD1BD"/>
		</linearGradient>
		<path style="fill:url(#SVGID_00000020384750274716535340000007241757953310863526_);" d="M311.888,187.714
			c0,1.344-1.089,2.433-2.433,2.433c-1.344,0-2.433-1.089-2.433-2.433c0-1.344,1.089-2.433,2.433-2.433
			C310.799,185.282,311.888,186.371,311.888,187.714z"/>
		<path style="fill:#FAC1A7;" d="M341.082,195.621c0,1.344-1.089,2.433-2.433,2.433s-2.433-1.089-2.433-2.433
			c0-1.344,1.089-2.433,2.433-2.433S341.082,194.278,341.082,195.621z"/>
		
			<linearGradient id="SVGID_00000032646635719710491970000012709794328905342896_" gradientUnits="userSpaceOnUse" x1="305.8099" y1="175.365" x2="351.4167" y2="175.365">
			<stop  offset="0" style="stop-color:#3D365F"/>
			<stop  offset="0.9985" style="stop-color:#58467F"/>
		</linearGradient>
		<path style="fill:url(#SVGID_00000032646635719710491970000012709794328905342896_);" d="M347.773,174.334
			c-1.217-17.638-19.455-11.228-19.455-11.228c-3.955-6.328-11.361,1.845-13.178,4.022c-0.01-2.115,0.134-4.212,0.748-6.276
			c0.084-0.282-0.356-0.402-0.44-0.121c-0.673,2.264-0.796,4.561-0.761,6.884c-0.299-0.168-0.595-0.296-0.888-0.402
			c-0.557-0.826-1.186-1.602-1.902-2.314c-0.208-0.207-0.531,0.115-0.323,0.322c0.562,0.559,1.064,1.161,1.525,1.792
			c-5.582-1.134-9.753,8.423-5.618,14.212c0.757,1.06,1.642,1.579,2.589,1.724c-0.29,0.784-0.513,1.419-0.615,1.725
			c0,0,2.168,1.311,1.084,5.217c0,0,0.677,2.448,2.331-7.431c4.075-1.808,8.2-7.577,8.2-7.577s12.683,12.683,24.46,12.683
			S347.773,174.334,347.773,174.334z"/>
		
			<linearGradient id="SVGID_00000095328329916952302020000006501423914550754459_" gradientUnits="userSpaceOnUse" x1="336.1482" y1="190.1642" x2="342.2987" y2="190.1642">
			<stop  offset="0" style="stop-color:#3D365F"/>
			<stop  offset="0.9985" style="stop-color:#58467F"/>
		</linearGradient>
		<path style="fill:url(#SVGID_00000095328329916952302020000006501423914550754459_);" d="M339.258,187.714
			c0,0-3.649,9.123-3.041,9.732c0.608,0.608,3.041-7.299,4.258-4.257c1.216,3.041,1.825-10.34,1.825-10.34L339.258,187.714z"/>
		<g>
			<path style="fill:none;stroke:#230F0E;stroke-width:0.1313;stroke-miterlimit:10;" d="M324.885,190.928
				c1.126-2.752,4.27-4.071,7.022-2.945c2.752,1.126,4.071,4.27,2.945,7.022c-1.126,2.752-4.27,4.071-7.022,2.945
				C325.078,196.824,323.759,193.68,324.885,190.928z"/>
			<path style="fill:none;stroke:#230F0E;stroke-width:0.1313;stroke-miterlimit:10;" d="M313.046,187.278
				c1.126-2.752,4.27-4.071,7.022-2.945c2.752,1.126,4.071,4.27,2.945,7.022c-1.126,2.752-4.27,4.071-7.022,2.945
				C313.238,193.174,311.92,190.031,313.046,187.278z"/>
			<path style="fill:none;stroke:#230F0E;stroke-width:0.1313;stroke-miterlimit:10;" d="M324.723,191.384
				c0,0-0.832,0.423-1.641-0.514"/>
			
				<line style="fill:none;stroke:#230F0E;stroke-width:0.1313;stroke-miterlimit:10;" x1="334.779" y1="195.171" x2="337.167" y2="195.082"/>
			
				<line style="fill:none;stroke:#230F0E;stroke-width:0.1313;stroke-miterlimit:10;" x1="312.729" y1="188.361" x2="310.405" y2="186.542"/>
		</g>
		
			<linearGradient id="SVGID_00000151535412683372435460000006839605627913921164_" gradientUnits="userSpaceOnUse" x1="306.9697" y1="200.8982" x2="337.1017" y2="200.8982">
			<stop  offset="0" style="stop-color:#3D365F"/>
			<stop  offset="0.9985" style="stop-color:#58467F"/>
		</linearGradient>
		<path style="fill:url(#SVGID_00000151535412683372435460000006839605627913921164_);" d="M311.28,187.106
			c0,0-4.866,12.164-4.257,14.597c0.608,2.433,4.866,11.556,9.731,12.772s13.989-3.041,16.422-5.474
			c2.433-2.433,4.658-15.51,3.697-14.597c-0.96,0.912-7.641,9.089-8.558,8.042c-0.918-1.048-8.824-3.48-11.865-2.872
			C313.409,200.183,311.28,188.931,311.28,187.106z"/>
		<path style="fill:#A85C54;" d="M310.367,188.627"/>
		<path style="fill:none;stroke:#4F2724;stroke-width:0.2559;stroke-miterlimit:10;" d="M318.144,205.323
			c0,0,3.516,2.161,6.14,0.196"/>
	</g>
	<path style="fill:#230F0E;" d="M604.221,198.321c-0.175,0.43-0.434,0.732-0.578,0.673c-0.143-0.059-0.117-0.455,0.058-0.885
		c0.175-0.431,0.434-0.732,0.577-0.674C604.422,197.494,604.396,197.891,604.221,198.321z"/>
	<g>
		<path style="fill:#3A1817;" d="M606.061,196.719c-0.815-1.129-2.179-1.418-3.25-0.463c-0.134,0.12,0.036,0.343,0.171,0.223
			c0.964-0.859,2.136-0.587,2.857,0.411C605.945,197.036,606.167,196.865,606.061,196.719L606.061,196.719z"/>
	</g>
	<g>
		<path style="fill:#2B2222;" d="M603.74,203.416c-0.097,0.009-0.186-0.007-0.261-0.056c-0.362-0.234-0.164-1.047,0.066-1.688
			c0.314-0.877,0.871-1.951,1.567-3.026l0,0c0.696-1.075,1.45-2.021,2.122-2.666c0.491-0.47,1.154-0.985,1.513-0.75
			c0.362,0.234,0.164,1.047-0.066,1.688c-0.314,0.877-0.87,1.951-1.567,3.026s-1.45,2.021-2.122,2.666
			C604.604,202.983,604.109,203.382,603.74,203.416z M605.228,198.723c-0.691,1.065-1.241,2.13-1.552,2.997
			c-0.292,0.814-0.337,1.383-0.122,1.523c0.217,0.139,0.717-0.134,1.34-0.733c0.665-0.638,1.411-1.576,2.102-2.642
			c0.691-1.066,1.241-2.13,1.552-2.997c0.292-0.814,0.337-1.383,0.122-1.523c-0.216-0.138-0.716,0.135-1.34,0.733
			C606.666,196.719,605.919,197.657,605.228,198.723L605.228,198.723z"/>
	</g>
	<g>
		<polygon style="fill:#2B2222;" points="605.05,198.752 592.906,192.68 592.962,192.567 605.106,198.639 		"/>
	</g>
	
		<linearGradient id="SVGID_00000000943925537088121690000001620885535829563572_" gradientUnits="userSpaceOnUse" x1="589.1755" y1="194.0014" x2="593.7734" y2="194.0014">
		<stop  offset="0.0091" style="stop-color:#A46A6D"/>
		<stop  offset="1" style="stop-color:#B28E8E"/>
	</linearGradient>
	<path style="fill:url(#SVGID_00000000943925537088121690000001620885535829563572_);" d="M593.755,194.211
		c-0.157,1.712-1.306,3.006-2.566,2.89c-1.26-0.116-2.153-1.598-1.996-3.31c0.157-1.712,1.306-3.006,2.566-2.89
		C593.019,191.018,593.913,192.499,593.755,194.211z"/>
	<g>
		<path style="fill:#604941;" d="M597.819,204.779c0.179,1.188,0.963,2.43,2.313,2.21c0.107-0.018,0.062-0.18-0.045-0.163
			c-1.254,0.204-1.942-1.014-2.105-2.092C597.966,204.627,597.803,204.672,597.819,204.779L597.819,204.779z"/>
	</g>
</g>
</svg>
